<svg xmlns="http://www.w3.org/2000/svg" xmlns:xlink="http://www.w3.org/1999/xlink" version="1.1" x="0px" y="0px" viewBox="0 0 16 20" style="enable-background:new 0 0 16 16;" xml:space="preserve"><g><path d="M13,6.5C13,2.916,10.084,0,6.5,0S0,2.916,0,6.5c0,1.232,0.34,2.417,0.986,3.44l-0.951,2.374   c-0.074,0.186-0.031,0.397,0.111,0.539C0.242,12.949,0.37,13,0.5,13c0.063,0,0.125-0.012,0.186-0.036l2.373-0.95   C4.083,12.66,5.268,13,6.5,13C10.084,13,13,10.084,13,6.5z"/><path d="M15.101,13.158C15.689,12.217,16,11.131,16,10c0-1.81-0.809-3.431-2.08-4.532C13.967,5.806,14,6.149,14,6.5   c0,4.136-3.364,7.5-7.5,7.5c-0.347,0-0.689-0.029-1.028-0.076C6.572,15.193,8.192,16,10,16c1.131,0,2.217-0.311,3.158-0.899   l2.156,0.863C15.374,15.988,15.438,16,15.5,16c0.13,0,0.258-0.051,0.354-0.146c0.142-0.142,0.185-0.354,0.11-0.539L15.101,13.158z"/></g><text x="0" y="31" fill="#000000" font-size="5px" font-weight="bold" font-family="'Helvetica Neue', Helvetica, Arial-Unicode, Arial, Sans-serif">Created by icon 54</text><text x="0" y="36" fill="#000000" font-size="5px" font-weight="bold" font-family="'Helvetica Neue', Helvetica, Arial-Unicode, Arial, Sans-serif">from the Noun Project</text></svg>