<svg xmlns="http://www.w3.org/2000/svg" viewBox="0 0 153.39 309.63"><defs><style>.cls-1{fill:#9ebd1d;}.cls-2{fill:#83b328;}.cls-3{fill:#99ba1f;}.cls-4{fill:#90b923;}.cls-5{fill:#55ac6c;}.cls-6{fill:#58ab5a;}.cls-7{fill:#47a656;}.cls-8{fill:#67b162;}.cls-9{fill:#0c594d;}.cls-10{fill:#12664d;}.cls-11{fill:#157e42;}.cls-12{fill:#5aa632;}.cls-13{fill:#349136;}.cls-14{fill:#46a135;}.cls-15{fill:#2b8a36;}.cls-16{fill:#0d7946;}.cls-17{fill:#117d46;}.cls-18{fill:#80b229;}.cls-19{fill:#84b428;}.cls-20{fill:#a6c018;}.cls-21{fill:#92bb22;}.cls-22{fill:#93ba21;}.cls-23{fill:#8eb824;}.cls-24{fill:#c2c917;}.cls-25{fill:#b9c606;}.cls-26{fill:#a7c017;}.cls-27{fill:#abc114;}.cls-28{fill:#dad100;}.cls-29{fill:#d9cf00;}.cls-30{fill:#cdcd09;}.cls-31{fill:#d2cf19;}.cls-32{fill:#f4e02d;}.cls-33{fill:#dfd319;}.cls-34{fill:#419c36;}.cls-35{fill:#b8c507;}.cls-36{fill:#4da434;}.cls-37{fill:#71b150;}.cls-38{fill:#65ae4c;}.cls-39{fill:#7ab45f;}.cls-40{fill:#60ac58;}.cls-41{fill:#6fb360;}.cls-42{fill:#6db16a;}.cls-43{fill:#1b7e44;}.cls-44{fill:#409636;}.cls-45{fill:#adc113;}</style></defs><title>Asset 27</title><g id="Layer_2" data-name="Layer 2"><g id="Layer_1-2" data-name="Layer 1"><path class="cls-1" d="M31.13,219a.71.71,0,0,1-.37-.1.75.75,0,0,1-.38-.65V182a.76.76,0,0,1,.38-.65.75.75,0,0,1,.75,0l30.38,18.12a.76.76,0,0,1,.37.65.74.74,0,0,1-.37.64L31.51,218.9A.72.72,0,0,1,31.13,219Zm.75-35.68v33.61l28.17-16.8Z"/><path class="cls-2" d="M.75,164.62a.81.81,0,0,1-.37-.09.78.78,0,0,1-.38-.66V127.63A.78.78,0,0,1,.38,127a.76.76,0,0,1,.76,0l30.38,18.13a.75.75,0,0,1,0,1.28L1.14,164.52A.78.78,0,0,1,.75,164.62ZM1.5,129v33.6l28.17-16.8Z"/><path class="cls-3" d="M31.13,182.75a.71.71,0,0,1-.37-.1.75.75,0,0,1-.38-.65V145.75a.75.75,0,0,1,1.13-.64l30.38,18.12a.75.75,0,0,1,0,1.29L31.51,182.64A.73.73,0,0,1,31.13,182.75Zm.75-35.68v33.61l28.17-16.8Z"/><path class="cls-4" d="M31.13,182.75a.73.73,0,0,1-.38-.11L.37,164.52a.75.75,0,0,1,0-1.29l30.38-18.12a.75.75,0,0,1,.75,0,.73.73,0,0,1,.38.65V182a.73.73,0,0,1-.38.65A.69.69,0,0,1,31.13,182.75ZM2.21,163.88l28.17,16.8V147.07Z"/><path class="cls-5" d="M91.89,37.75a.79.79,0,0,1-.37-.1.73.73,0,0,1-.38-.65V.75A.73.73,0,0,1,91.52.1a.75.75,0,0,1,.75,0l30.38,18.12a.74.74,0,0,1,.37.64.76.76,0,0,1-.37.65L92.27,37.64A.76.76,0,0,1,91.89,37.75Zm.75-35.68V35.68L120.8,18.87Z"/><path class="cls-6" d="M91.89,74a.69.69,0,0,1-.37-.1.73.73,0,0,1-.38-.65V37a.73.73,0,0,1,.38-.65.75.75,0,0,1,.75,0l30.38,18.12a.75.75,0,0,1,0,1.29L92.27,73.89A.76.76,0,0,1,91.89,74Zm.75-35.68V71.93L120.8,55.12Z"/><path class="cls-7" d="M122.26,55.87a.84.84,0,0,1-.37-.09.78.78,0,0,1-.38-.66V18.88a.78.78,0,0,1,.38-.66.76.76,0,0,1,.76,0L153,36.36a.75.75,0,0,1,0,1.28L122.65,55.77A.76.76,0,0,1,122.26,55.87ZM123,20.2V53.8L151.18,37Z"/><path class="cls-8" d="M122.26,55.87a.75.75,0,0,1-.38-.1L91.5,37.64a.74.74,0,0,1,0-1.28l30.38-18.13a.75.75,0,0,1,.75,0,.76.76,0,0,1,.38.66V55.12a.76.76,0,0,1-.38.66A.78.78,0,0,1,122.26,55.87ZM93.35,37l28.16,16.8V20.2Z"/><path class="cls-9" d="M152.64,74a.76.76,0,0,1-.38-.11L121.88,55.77a.75.75,0,0,1,0-1.29l30.38-18.12a.75.75,0,0,1,.75,0,.73.73,0,0,1,.38.65V73.25a.73.73,0,0,1-.38.65A.69.69,0,0,1,152.64,74ZM123.73,55.12l28.16,16.81V38.32Z"/><path class="cls-10" d="M152.64,110.25a.76.76,0,0,1-.38-.11L121.88,92a.75.75,0,0,1,0-1.29l30.38-18.12a.75.75,0,0,1,.75,0,.73.73,0,0,1,.38.65V109.5a.73.73,0,0,1-.38.65A.69.69,0,0,1,152.64,110.25ZM123.73,91.38l28.16,16.8V74.57Z"/><path class="cls-11" d="M152.64,146.5a.76.76,0,0,1-.38-.11l-30.38-18.12a.75.75,0,0,1,0-1.29l30.38-18.12a.75.75,0,0,1,.75,0,.73.73,0,0,1,.38.65v36.25a.73.73,0,0,1-.38.65A.69.69,0,0,1,152.64,146.5Zm-28.91-18.87,28.16,16.8V110.82Z"/><path class="cls-12" d="M152.64,219a.75.75,0,0,1-.38-.1l-30.38-18.13a.74.74,0,0,1-.37-.64.76.76,0,0,1,.37-.65l30.38-18.12a.75.75,0,0,1,1.13.64v36.25a.73.73,0,0,1-.38.65A.69.69,0,0,1,152.64,219Zm-28.91-18.87,28.16,16.8V183.32Z"/><path class="cls-12" d="M152.64,182.75a.75.75,0,0,1-.38-.1l-30.38-18.13a.74.74,0,0,1-.37-.64.76.76,0,0,1,.37-.65l30.38-18.12a.75.75,0,0,1,.75,0,.76.76,0,0,1,.38.65V182a.73.73,0,0,1-.38.65A.69.69,0,0,1,152.64,182.75Zm-28.91-18.87,28.16,16.8V147.07Z"/><path class="cls-10" d="M122.26,92.12a.75.75,0,0,1-.38-.1L91.5,73.89a.74.74,0,0,1,0-1.28l30.38-18.13a.75.75,0,0,1,.75,0,.76.76,0,0,1,.38.66V91.37a.76.76,0,0,1-.38.66A.78.78,0,0,1,122.26,92.12ZM93.35,73.25l28.16,16.8V56.45Z"/><path class="cls-11" d="M122.26,128.37a.75.75,0,0,1-.38-.1L91.5,110.14a.74.74,0,0,1,0-1.28l30.38-18.13a.75.75,0,0,1,.75,0,.76.76,0,0,1,.38.66v36.24a.76.76,0,0,1-.38.66A.78.78,0,0,1,122.26,128.37ZM93.35,109.5l28.16,16.8V92.7Z"/><path class="cls-13" d="M122.26,164.62a.75.75,0,0,1-.38-.1L91.5,146.39a.74.74,0,0,1,0-1.28L121.88,127a.75.75,0,0,1,.75,0,.76.76,0,0,1,.38.66v36.24a.76.76,0,0,1-.38.66A.78.78,0,0,1,122.26,164.62ZM93.35,145.75l28.16,16.8V129Z"/><path class="cls-12" d="M122.26,200.87a.75.75,0,0,1-.38-.1L91.5,182.65a.76.76,0,0,1-.37-.65.74.74,0,0,1,.37-.64l30.38-18.13a.75.75,0,0,1,.75,0,.73.73,0,0,1,.38.65v36.24a.76.76,0,0,1-.38.66A.78.78,0,0,1,122.26,200.87ZM93.35,182l28.16,16.8V165.2Z"/><path class="cls-14" d="M122.26,200.87a.84.84,0,0,1-.37-.09.78.78,0,0,1-.38-.66V163.88a.75.75,0,0,1,.38-.65.76.76,0,0,1,.76,0L153,181.36a.73.73,0,0,1,.36.64.75.75,0,0,1-.36.65l-30.38,18.12A.76.76,0,0,1,122.26,200.87ZM123,165.2v33.6L151.18,182Z"/><path class="cls-15" d="M122.26,164.62a.84.84,0,0,1-.37-.09.78.78,0,0,1-.38-.66V127.63a.78.78,0,0,1,.38-.66.76.76,0,0,1,.76,0L153,145.11a.75.75,0,0,1,0,1.28l-30.38,18.13A.76.76,0,0,1,122.26,164.62ZM123,129v33.6l28.17-16.8Z"/><path class="cls-16" d="M122.26,128.37a.84.84,0,0,1-.37-.09.78.78,0,0,1-.38-.66V91.38a.78.78,0,0,1,.38-.66.76.76,0,0,1,.76,0L153,108.86a.75.75,0,0,1,0,1.28l-30.38,18.13A.76.76,0,0,1,122.26,128.37ZM123,92.7v33.6l28.17-16.8Z"/><path class="cls-13" d="M91.89,146.5a.77.77,0,0,1-.39-.11L61.12,128.27a.76.76,0,0,1,0-1.29L91.5,108.86a.76.76,0,0,1,.76,0,.75.75,0,0,1,.38.65v36.25a.75.75,0,0,1-.38.65A.74.74,0,0,1,91.89,146.5ZM63,127.63l28.17,16.8V110.82Z"/><path class="cls-15" d="M91.89,146.5a.69.69,0,0,1-.37-.1.73.73,0,0,1-.38-.65V109.5a.73.73,0,0,1,.38-.65.75.75,0,0,1,.75,0L122.65,127a.75.75,0,0,1,0,1.29L92.27,146.39A.76.76,0,0,1,91.89,146.5Zm.75-35.68v33.61l28.16-16.8Z"/><path class="cls-17" d="M91.89,110.25a.69.69,0,0,1-.37-.1.73.73,0,0,1-.38-.65V73.25a.73.73,0,0,1,.38-.65.75.75,0,0,1,.75,0l30.38,18.12a.75.75,0,0,1,0,1.29L92.27,110.14A.76.76,0,0,1,91.89,110.25Zm.75-35.68v33.61l28.16-16.8Z"/><path class="cls-18" d="M.75,200.87a.81.81,0,0,1-.37-.09.78.78,0,0,1-.38-.66V163.88a.75.75,0,0,1,.38-.65.76.76,0,0,1,.76,0l30.38,18.13a.75.75,0,0,1,.36.64.77.77,0,0,1-.36.65L1.14,200.77A.78.78,0,0,1,.75,200.87ZM1.5,165.2v33.6L29.67,182Z"/><path class="cls-18" d="M.75,237.13a.82.82,0,0,1-.37-.1.76.76,0,0,1-.38-.65V200.13a.75.75,0,0,1,.38-.65.76.76,0,0,1,.76,0l30.38,18.13a.75.75,0,0,1,.36.64.77.77,0,0,1-.36.65L1.14,237A.79.79,0,0,1,.75,237.13Zm.75-35.68v33.61l28.17-16.81Z"/><path class="cls-2" d="M.75,273.38a.82.82,0,0,1-.37-.1.75.75,0,0,1-.38-.65V236.38a.75.75,0,0,1,.38-.65.74.74,0,0,1,.76,0l30.38,18.12a.75.75,0,0,1,.36.64.77.77,0,0,1-.36.65L1.14,273.27A.79.79,0,0,1,.75,273.38ZM1.5,237.7v33.61L29.67,254.5Z"/><path class="cls-19" d="M.75,309.63a.82.82,0,0,1-.37-.1.75.75,0,0,1-.38-.65V272.63A.75.75,0,0,1,.38,272a.74.74,0,0,1,.76,0l30.38,18.12a.75.75,0,0,1,.36.64.77.77,0,0,1-.36.65L1.14,309.52A.79.79,0,0,1,.75,309.63ZM1.5,274v33.61l28.17-16.81Z"/><path class="cls-3" d="M31.13,255.25a.71.71,0,0,1-.37-.1.75.75,0,0,1-.38-.65V218.25a.78.78,0,0,1,.38-.65.75.75,0,0,1,.75,0l30.38,18.12a.76.76,0,0,1,.37.65.74.74,0,0,1-.37.64L31.51,255.15A.72.72,0,0,1,31.13,255.25Zm.75-35.68v33.61l28.17-16.8Z"/><path class="cls-20" d="M31.13,291.5a.71.71,0,0,1-.37-.1.75.75,0,0,1-.38-.65V254.5a.78.78,0,0,1,.38-.65.75.75,0,0,1,.75,0L61.89,272a.76.76,0,0,1,.37.65.74.74,0,0,1-.37.64L31.51,291.4A.72.72,0,0,1,31.13,291.5Zm.75-35.68v33.61l28.17-16.8Z"/><path class="cls-21" d="M31.13,291.5a.72.72,0,0,1-.38-.1L.37,273.27a.74.74,0,0,1-.37-.64A.76.76,0,0,1,.37,272l30.38-18.12a.75.75,0,0,1,.75,0,.76.76,0,0,1,.38.65v36.25a.73.73,0,0,1-.38.65A.69.69,0,0,1,31.13,291.5ZM2.21,272.63l28.17,16.8V255.82Z"/><path class="cls-22" d="M31.13,255.25a.72.72,0,0,1-.38-.1L.37,237a.74.74,0,0,1-.37-.64.76.76,0,0,1,.37-.65l30.38-18.12a.75.75,0,0,1,.75,0,.76.76,0,0,1,.38.65V254.5a.73.73,0,0,1-.38.65A.69.69,0,0,1,31.13,255.25ZM2.21,236.38l28.17,16.8V219.57Z"/><path class="cls-23" d="M31.13,219a.72.72,0,0,1-.38-.1L.37,200.77a.74.74,0,0,1-.37-.64.76.76,0,0,1,.37-.65l30.38-18.12a.75.75,0,0,1,1.13.64v36.25a.73.73,0,0,1-.38.65A.69.69,0,0,1,31.13,219ZM2.21,200.13l28.17,16.8V183.32Z"/><path class="cls-24" d="M61.51,237.13a.79.79,0,0,1-.37-.1.74.74,0,0,1-.38-.65V200.13a.73.73,0,0,1,.38-.65.75.75,0,0,1,.75,0l30.38,18.13a.74.74,0,0,1,.37.64.76.76,0,0,1-.37.65L61.89,237A.76.76,0,0,1,61.51,237.13Zm.75-35.68v33.61l28.16-16.81Z"/><path class="cls-25" d="M61.51,273.38a.79.79,0,0,1-.37-.1.73.73,0,0,1-.38-.65V236.38a.73.73,0,0,1,.38-.65.72.72,0,0,1,.75,0l30.38,18.12a.74.74,0,0,1,.37.64.76.76,0,0,1-.37.65L61.89,273.27A.76.76,0,0,1,61.51,273.38Zm.75-35.68v33.61L90.42,254.5Z"/><path class="cls-26" d="M61.51,273.38a.79.79,0,0,1-.39-.11L30.74,255.15a.77.77,0,0,1-.36-.65.75.75,0,0,1,.36-.64l30.38-18.12a.74.74,0,0,1,.76,0,.75.75,0,0,1,.38.65v36.25a.75.75,0,0,1-.38.65A.82.82,0,0,1,61.51,273.38ZM32.59,254.5l28.17,16.81V237.7Z"/><path class="cls-27" d="M61.51,237.13a.79.79,0,0,1-.39-.11L30.74,218.9a.77.77,0,0,1-.36-.65.75.75,0,0,1,.36-.64l30.38-18.13a.76.76,0,0,1,.76,0,.75.75,0,0,1,.38.65v36.25a.76.76,0,0,1-.38.65A.82.82,0,0,1,61.51,237.13ZM32.59,218.25l28.17,16.81V201.45Z"/><path class="cls-28" d="M91.89,219a.69.69,0,0,1-.37-.1.73.73,0,0,1-.38-.65V182a.75.75,0,0,1,1.13-.64l30.38,18.12a.76.76,0,0,1,.37.65.74.74,0,0,1-.37.64L92.27,218.9A.75.75,0,0,1,91.89,219Zm.75-35.68v33.61l28.16-16.8Z"/><path class="cls-29" d="M91.89,255.25a.69.69,0,0,1-.37-.1.73.73,0,0,1-.38-.65V218.25a.76.76,0,0,1,.38-.65.75.75,0,0,1,.75,0l30.38,18.12a.76.76,0,0,1,.37.65.74.74,0,0,1-.37.64L92.27,255.15A.75.75,0,0,1,91.89,255.25Zm.75-35.68v33.61l28.16-16.8Z"/><path class="cls-30" d="M91.89,255.25a.76.76,0,0,1-.39-.1L61.12,237a.73.73,0,0,1-.36-.64.75.75,0,0,1,.36-.65L91.5,217.61a.76.76,0,0,1,.76,0,.78.78,0,0,1,.38.65V254.5a.75.75,0,0,1-.38.65A.74.74,0,0,1,91.89,255.25ZM63,236.38l28.17,16.8V219.57Z"/><path class="cls-31" d="M91.89,219a.76.76,0,0,1-.39-.1L61.12,200.77a.73.73,0,0,1-.36-.64.75.75,0,0,1,.36-.65L91.5,181.36a.75.75,0,0,1,1.14.64v36.25a.75.75,0,0,1-.38.65A.74.74,0,0,1,91.89,219ZM63,200.13l28.17,16.8V183.32Z"/><path class="cls-32" d="M122.26,237.13a.86.86,0,0,1-.37-.1.76.76,0,0,1-.38-.65V200.13a.75.75,0,0,1,.38-.65.76.76,0,0,1,.76,0L153,217.61a.73.73,0,0,1,.36.64.75.75,0,0,1-.36.65L122.65,237A.77.77,0,0,1,122.26,237.13Zm.75-35.68v33.61l28.17-16.81Z"/><path class="cls-33" d="M122.26,237.13a.76.76,0,0,1-.38-.11L91.5,218.9a.76.76,0,0,1-.37-.65.74.74,0,0,1,.37-.64l30.38-18.13a.75.75,0,0,1,.75,0,.73.73,0,0,1,.38.65v36.25a.74.74,0,0,1-.38.65A.79.79,0,0,1,122.26,237.13ZM93.35,218.25l28.16,16.81V201.45Z"/><path class="cls-34" d="M31.13,146.5a.71.71,0,0,1-.37-.1.75.75,0,0,1-.38-.65V109.5a.75.75,0,0,1,1.13-.64L61.89,127a.75.75,0,0,1,0,1.29L31.51,146.39A.73.73,0,0,1,31.13,146.5Zm.75-35.68v33.61l28.17-16.8Z"/><path class="cls-14" d="M61.51,164.62a.78.78,0,0,1-.37-.09.76.76,0,0,1-.38-.66V127.63a.76.76,0,0,1,.38-.66.75.75,0,0,1,.75,0l30.38,18.13a.74.74,0,0,1,0,1.28L61.89,164.52A.75.75,0,0,1,61.51,164.62ZM62.26,129v33.6l28.16-16.8Z"/><path class="cls-35" d="M61.51,200.87a.78.78,0,0,1-.37-.09.76.76,0,0,1-.38-.66V163.88a.73.73,0,0,1,.38-.65.75.75,0,0,1,.75,0l30.38,18.13a.74.74,0,0,1,.37.64.76.76,0,0,1-.37.65L61.89,200.77A.75.75,0,0,1,61.51,200.87Zm.75-35.67v33.6L90.42,182Z"/><path class="cls-36" d="M61.51,164.62a.78.78,0,0,1-.39-.1L30.74,146.39a.75.75,0,0,1,0-1.28L61.12,127a.76.76,0,0,1,.76,0,.78.78,0,0,1,.38.66v36.24a.78.78,0,0,1-.38.66A.81.81,0,0,1,61.51,164.62ZM32.59,145.75l28.17,16.8V129Z"/><path class="cls-37" d="M.75,128.37a.81.81,0,0,1-.37-.09.78.78,0,0,1-.38-.66V91.38a.78.78,0,0,1,.38-.66.76.76,0,0,1,.76,0l30.38,18.13a.75.75,0,0,1,0,1.28L1.14,128.27A.78.78,0,0,1,.75,128.37ZM1.5,92.7v33.6l28.17-16.8Z"/><path class="cls-38" d="M31.13,110.25a.71.71,0,0,1-.37-.1.75.75,0,0,1-.38-.65V73.25a.75.75,0,0,1,1.13-.64L61.89,90.73a.75.75,0,0,1,0,1.29L31.51,110.14A.73.73,0,0,1,31.13,110.25Zm.75-35.68v33.61l28.17-16.8Z"/><path class="cls-39" d="M31.13,110.25a.73.73,0,0,1-.38-.11L.37,92a.75.75,0,0,1,0-1.29L30.75,72.61a.75.75,0,0,1,.75,0,.73.73,0,0,1,.38.65V109.5a.73.73,0,0,1-.38.65A.69.69,0,0,1,31.13,110.25ZM2.21,91.38l28.17,16.8V74.57Z"/><path class="cls-40" d="M61.51,92.12a.78.78,0,0,1-.37-.09.76.76,0,0,1-.38-.66V55.13a.76.76,0,0,1,.38-.66.75.75,0,0,1,.75,0L92.27,72.61a.74.74,0,0,1,0,1.28L61.89,92A.75.75,0,0,1,61.51,92.12Zm.75-35.67v33.6l28.16-16.8Z"/><path class="cls-41" d="M61.51,92.12a.78.78,0,0,1-.39-.1L30.74,73.89a.75.75,0,0,1,0-1.28L61.12,54.48a.76.76,0,0,1,.76,0,.78.78,0,0,1,.38.66V91.37a.78.78,0,0,1-.38.66A.81.81,0,0,1,61.51,92.12ZM32.59,73.25l28.17,16.8V56.45Z"/><path class="cls-13" d="M61.51,128.37a.78.78,0,0,1-.39-.1L30.74,110.14a.75.75,0,0,1,0-1.28L61.12,90.73a.76.76,0,0,1,.76,0,.78.78,0,0,1,.38.66v36.24a.78.78,0,0,1-.38.66A.81.81,0,0,1,61.51,128.37ZM32.59,109.5l28.17,16.8V92.7Z"/><path class="cls-42" d="M91.89,74a.77.77,0,0,1-.39-.11L61.12,55.77a.76.76,0,0,1,0-1.29L91.5,36.36a.76.76,0,0,1,.76,0,.75.75,0,0,1,.38.65V73.25a.75.75,0,0,1-.38.65A.74.74,0,0,1,91.89,74ZM63,55.12,91.14,71.93V38.32Z"/><path class="cls-43" d="M91.89,110.25a.77.77,0,0,1-.39-.11L61.12,92a.76.76,0,0,1,0-1.29L91.5,72.61a.76.76,0,0,1,.76,0,.75.75,0,0,1,.38.65V109.5a.75.75,0,0,1-.38.65A.74.74,0,0,1,91.89,110.25ZM63,91.38l28.17,16.8V74.57Z"/><path class="cls-15" d="M61.51,128.37a.78.78,0,0,1-.37-.09.76.76,0,0,1-.38-.66V91.38a.76.76,0,0,1,.38-.66.75.75,0,0,1,.75,0l30.38,18.13a.74.74,0,0,1,0,1.28L61.89,128.27A.75.75,0,0,1,61.51,128.37Zm.75-35.67v33.6l28.16-16.8Z"/><path class="cls-44" d="M31.13,146.5a.73.73,0,0,1-.38-.11L.37,128.27a.75.75,0,0,1,0-1.29l30.38-18.12a.75.75,0,0,1,.75,0,.73.73,0,0,1,.38.65v36.25a.73.73,0,0,1-.38.65A.69.69,0,0,1,31.13,146.5ZM2.21,127.63l28.17,16.8V110.82Z"/><path class="cls-14" d="M91.89,182.75a.69.69,0,0,1-.37-.1.73.73,0,0,1-.38-.65V145.75a.73.73,0,0,1,.38-.65.75.75,0,0,1,.75,0l30.38,18.12a.75.75,0,0,1,0,1.29L92.27,182.64A.76.76,0,0,1,91.89,182.75Zm.75-35.68v33.61l28.16-16.8Z"/><path class="cls-12" d="M91.89,182.75a.77.77,0,0,1-.39-.11L61.12,164.52a.76.76,0,0,1,0-1.29L91.5,145.11a.76.76,0,0,1,.76,0,.75.75,0,0,1,.38.65V182a.75.75,0,0,1-.38.65A.74.74,0,0,1,91.89,182.75ZM63,163.88l28.17,16.8V147.07Z"/><path class="cls-45" d="M61.51,200.87a.78.78,0,0,1-.39-.1L30.74,182.65a.77.77,0,0,1-.36-.65.75.75,0,0,1,.36-.64l30.38-18.13a.76.76,0,0,1,.76,0,.75.75,0,0,1,.38.65v36.24a.78.78,0,0,1-.38.66A.81.81,0,0,1,61.51,200.87ZM32.59,182l28.17,16.8V165.2Z"/></g></g></svg>