<svg xmlns="http://www.w3.org/2000/svg" xmlns:xlink="http://www.w3.org/1999/xlink" viewBox="0 0 465.55 191.31"><defs><style>.cls-1{fill:url(#linear-gradient);}.cls-2{fill:#29b19b;}.cls-3{fill:#3bb08c;}.cls-4{fill:#5eb576;}.cls-5{fill:#6eb75e;}.cls-6{fill:#20af98;}.cls-7{fill:#34b190;}.cls-8{fill:#4cb27b;}.cls-9{fill:#61b45a;}.cls-10{fill:#72b96c;}.cls-11{fill:#60b680;}.cls-12{fill:#47b28a;}.cls-13{fill:#3ab294;}.cls-14{fill:#40b291;}.cls-15{fill:#4fb37a;}.cls-16{fill:#5fb364;}.cls-17{fill:#6bb76c;}.cls-18{fill:#5bb57e;}.cls-19{fill:#4ab38d;}.cls-20{fill:#51b276;}.cls-21{fill:#57b165;}.cls-22{fill:#69b773;}.cls-23{fill:#5fb783;}.cls-24{fill:#47ae61;}.cls-25{fill:#62b56f;}.cls-26{fill:#00aca9;}.cls-27{fill:url(#linear-gradient-2);}.cls-28{fill:#005a4d;}.cls-29{fill:#0a664f;}.cls-30{fill:#19824a;}.cls-31{fill:#34973f;}.cls-32{fill:#57ad32;}.cls-33{fill:#1a824a;}.cls-34{fill:#41a837;}.cls-35{fill:#2c9042;}.cls-36{fill:#0c7b4c;}.cls-37{fill:#096b4e;}.cls-38{fill:#1c824b;}.cls-39{fill:#157f4d;}.cls-40{fill:#47ab36;}.cls-41{fill:#3f9d36;}.cls-42{fill:#42a436;}.cls-43{fill:url(#linear-gradient-3);}.cls-44{fill:#7cb83f;}.cls-45{fill:#7bb83b;}.cls-46{fill:#7bb838;}.cls-47{fill:#7db830;}.cls-48{fill:#7fb92e;}.cls-49{fill:#92be30;}.cls-50{fill:#96be31;}.cls-51{fill:#a0c22d;}.cls-52{fill:#8bbd37;}.cls-53{fill:#8cbc31;}.cls-54{fill:#87ba31;}.cls-55{fill:#8abc3d;}.cls-56{fill:#b1c837;}.cls-57{fill:#bccb35;}.cls-58{fill:#b3c937;}.cls-59{fill:#a0c335;}.cls-60{fill:#a5c335;}.cls-61{fill:#a7c435;}.cls-62{fill:#d5d230;}.cls-63{fill:#d6d230;}.cls-64{fill:#c7cf36;}.cls-65{fill:#ccd13a;}.cls-66{fill:#f2e141;}.cls-67{fill:#dad53b;}</style><linearGradient id="linear-gradient" x1="461.65" y1="134.64" x2="427.11" y2="76.65" gradientUnits="userSpaceOnUse"><stop offset="0" stop-color="#00a9a6"/><stop offset="1" stop-color="#47ab35"/></linearGradient><linearGradient id="linear-gradient-2" x1="408.66" y1="92.37" x2="433.01" y2="55.98" gradientUnits="userSpaceOnUse"><stop offset="0" stop-color="#005a4d"/><stop offset="0.26" stop-color="#1b7944"/><stop offset="0.55" stop-color="#33953c"/><stop offset="0.81" stop-color="#42a537"/><stop offset="1" stop-color="#47ab35"/></linearGradient><linearGradient id="linear-gradient-3" x1="403.7" y1="35.71" x2="465.55" y2="35.71" gradientUnits="userSpaceOnUse"><stop offset="0" stop-color="#fae242"/><stop offset="0.14" stop-color="#f1df40"/><stop offset="0.36" stop-color="#d9d73c"/><stop offset="0.65" stop-color="#b2ca35"/><stop offset="0.97" stop-color="#7db82c"/><stop offset="1" stop-color="#78b62b"/></linearGradient></defs><title>logo-positive</title><g id="Layer_2" data-name="Layer 2"><g id="LogoAW"><path d="M0,95.55H25.42A56.16,56.16,0,0,1,39.5,97.37a36.18,36.18,0,0,1,12.76,6,31.49,31.49,0,0,1,9.22,11q3.54,6.82,3.54,17a34.66,34.66,0,0,1-3.54,16.21,33.26,33.26,0,0,1-9.22,11.14,38.46,38.46,0,0,1-12.76,6.43,50.08,50.08,0,0,1-14.08,2.08H0Zm23.4,60.56A43.13,43.13,0,0,0,33.32,155a25.92,25.92,0,0,0,9-3.95,21.08,21.08,0,0,0,6.53-7.55,25.47,25.47,0,0,0,2.53-12q0-7.7-2.53-12.56a20.52,20.52,0,0,0-6.53-7.6,24.32,24.32,0,0,0-9-3.74,49.2,49.2,0,0,0-9.92-1H12.76v49.63Z"/><path d="M69.92,142.49A25.76,25.76,0,0,1,72,132a24.55,24.55,0,0,1,5.62-8A24.92,24.92,0,0,1,86,118.79a30.23,30.23,0,0,1,20.66,0,24.92,24.92,0,0,1,8.41,5.17,24.4,24.4,0,0,1,5.62,8,25.76,25.76,0,0,1,2.08,10.48A26.11,26.11,0,0,1,120.71,153a24.87,24.87,0,0,1-5.62,8.16,25.93,25.93,0,0,1-8.41,5.32,28.75,28.75,0,0,1-20.66,0,25.93,25.93,0,0,1-8.41-5.32A25,25,0,0,1,72,153,26.11,26.11,0,0,1,69.92,142.49Zm12.35,0a19.56,19.56,0,0,0,.86,5.67,15.79,15.79,0,0,0,2.59,5.07,13.36,13.36,0,0,0,4.35,3.64,14.6,14.6,0,0,0,12.56,0,13.5,13.5,0,0,0,4.36-3.64,16,16,0,0,0,2.58-5.07,19.56,19.56,0,0,0,.86-5.67,19.08,19.08,0,0,0-.86-5.62,15.88,15.88,0,0,0-2.58-5,12.91,12.91,0,0,0-4.36-3.6,15.08,15.08,0,0,0-12.56,0,12.78,12.78,0,0,0-4.35,3.6,15.7,15.7,0,0,0-2.59,5A19.08,19.08,0,0,0,82.27,142.49Z"/><path d="M122.79,118.39H136l10.13,34.84h.2l10.44-34.84h13l10.53,34.84h.21l10.33-34.84h12.66L186.6,167H174.24l-11-34H163l-10.94,34H139.7Z"/><path d="M207.84,118.39h11.55v7.79h.2a15.71,15.71,0,0,1,5.62-6.43,16.2,16.2,0,0,1,9.47-2.78,18.2,18.2,0,0,1,8.15,1.67,16,16,0,0,1,5.57,4.41,17.72,17.72,0,0,1,3.19,6.27,26.32,26.32,0,0,1,1,7.3V167H240.45V140.06a35,35,0,0,0-.3-4.46,11.89,11.89,0,0,0-1.32-4.2,8.68,8.68,0,0,0-2.78-3.09,8.23,8.23,0,0,0-4.71-1.21,10.49,10.49,0,0,0-5.07,1.16,10.8,10.8,0,0,0-3.49,3,13.21,13.21,0,0,0-2.08,4.2,16.88,16.88,0,0,0-.71,4.81V167H207.84Z"/><path d="M259.7,101.88a7,7,0,0,1,2.18-5.12,7.48,7.48,0,0,1,5.52-2.18A8.05,8.05,0,0,1,273,96.66a7.1,7.1,0,0,1,0,10.43,8,8,0,0,1-5.62,2.08,7.48,7.48,0,0,1-5.52-2.18A7,7,0,0,1,259.7,101.88Zm1.72,16.51h12.16V167H261.42Z"/><path d="M283.12,118.39h11.55v7.79h.2a15.71,15.71,0,0,1,5.62-6.43A16.2,16.2,0,0,1,310,117a18.2,18.2,0,0,1,8.15,1.67,16,16,0,0,1,5.57,4.41,17.56,17.56,0,0,1,3.19,6.27,26.32,26.32,0,0,1,1,7.3V167H315.73V140.06a35,35,0,0,0-.3-4.46,11.89,11.89,0,0,0-1.32-4.2,8.68,8.68,0,0,0-2.78-3.09,8.18,8.18,0,0,0-4.71-1.21,10.49,10.49,0,0,0-5.07,1.16,10.8,10.8,0,0,0-3.49,3,13.42,13.42,0,0,0-2.08,4.2,16.86,16.86,0,0,0-.7,4.81V167H283.12Z"/><path d="M387.42,118.39v44.26a40.77,40.77,0,0,1-1.62,11.9,23.18,23.18,0,0,1-5,9,22.47,22.47,0,0,1-8.56,5.72,33.51,33.51,0,0,1-12.25,2,40.71,40.71,0,0,1-6.23-.51,41.2,41.2,0,0,1-6.48-1.52,37.82,37.82,0,0,1-6.13-2.53,29.39,29.39,0,0,1-5.27-3.44l7-9.42a25,25,0,0,0,8,5.11,24.07,24.07,0,0,0,9,1.78,18.9,18.9,0,0,0,7.34-1.27A11.88,11.88,0,0,0,372,176a13.62,13.62,0,0,0,2.53-5.29,27.55,27.55,0,0,0,.76-6.71v-3.55h-.2a17.17,17.17,0,0,1-6.74,5.47,21.63,21.63,0,0,1-9.16,1.89,23.72,23.72,0,0,1-9.93-2,22.57,22.57,0,0,1-7.54-5.47,25.16,25.16,0,0,1-4.82-8,27.91,27.91,0,0,1-1.72-9.78,29.22,29.22,0,0,1,1.67-9.92,24.54,24.54,0,0,1,4.76-8.11,22.71,22.71,0,0,1,7.5-5.47,23.39,23.39,0,0,1,9.88-2,22.16,22.16,0,0,1,9.62,2.12,16.31,16.31,0,0,1,7.09,6.59h.2v-7.29Zm-25.93,8.5a13.78,13.78,0,0,0-5.93,1.22,12.7,12.7,0,0,0-4.35,3.28,14.59,14.59,0,0,0-2.74,4.89,18.77,18.77,0,0,0-1,6.06,16.85,16.85,0,0,0,1,5.65,16,16,0,0,0,2.74,4.9,13.24,13.24,0,0,0,4.35,3.48,12.6,12.6,0,0,0,5.83,1.31A13.81,13.81,0,0,0,372,153a15.12,15.12,0,0,0,2.89-4.9,16.89,16.89,0,0,0,1-5.8,17.68,17.68,0,0,0-1-6,15.1,15.1,0,0,0-2.89-4.94,13.22,13.22,0,0,0-4.51-3.33A14.06,14.06,0,0,0,361.49,126.89Z"/><polygon class="cls-1" points="465.55 107.12 465.55 142.83 434.63 124.98 403.7 107.12 434.63 89.27 465.55 71.42 465.55 107.12"/><polygon class="cls-2" points="465.55 121.41 465.55 128.55 459.37 124.98 453.18 121.41 459.37 117.84 465.55 114.27 465.55 121.41"/><polygon class="cls-3" points="465.55 107.12 465.55 114.27 459.37 110.69 453.18 107.12 459.37 103.55 465.55 99.98 465.55 107.12"/><polygon class="cls-4" points="465.55 92.84 465.55 99.98 459.37 96.41 453.18 92.84 459.37 89.27 465.55 85.7 465.55 92.84"/><polygon class="cls-5" points="465.55 78.56 465.55 85.7 459.37 82.13 453.18 78.56 459.37 74.99 465.55 71.42 465.55 78.56"/><polygon class="cls-6" points="453.18 128.55 453.18 135.69 447 132.12 440.81 128.55 447 124.98 453.18 121.41 453.18 128.55"/><polygon class="cls-7" points="453.18 114.27 453.18 121.41 447 117.84 440.81 114.27 447 110.69 453.18 107.12 453.18 114.27"/><polygon class="cls-8" points="453.18 99.98 453.18 107.12 447 103.55 440.81 99.98 447 96.41 453.18 92.84 453.18 99.98"/><polygon class="cls-9" points="453.18 85.7 453.18 92.84 447 89.27 440.81 85.7 447 82.13 453.18 78.56 453.18 85.7"/><polygon class="cls-10" points="453.18 85.7 453.18 78.56 459.37 82.13 465.55 85.7 459.37 89.27 453.18 92.84 453.18 85.7"/><polygon class="cls-11" points="453.18 99.98 453.18 92.84 459.37 96.41 465.55 99.98 459.37 103.55 453.18 107.12 453.18 99.98"/><polygon class="cls-12" points="453.18 114.27 453.18 107.12 459.37 110.69 465.55 114.27 459.37 117.84 453.18 121.41 453.18 114.27"/><polygon class="cls-13" points="453.18 128.55 453.18 121.41 459.37 124.98 465.55 128.55 459.37 132.12 453.18 135.69 453.18 128.55"/><polygon class="cls-14" points="440.81 121.41 440.81 128.55 434.63 124.98 428.44 121.41 434.63 117.84 440.81 114.27 440.81 121.41"/><polygon class="cls-15" points="440.81 107.12 440.81 114.27 434.63 110.69 428.44 107.12 434.63 103.55 440.81 99.98 440.81 107.12"/><polygon class="cls-16" points="440.81 92.84 440.81 99.98 434.63 96.41 428.44 92.84 434.63 89.27 440.81 85.7 440.81 92.84"/><polygon class="cls-17" points="440.81 92.84 440.81 85.7 447 89.27 453.18 92.84 447 96.41 440.81 99.98 440.81 92.84"/><polygon class="cls-18" points="440.81 107.12 440.81 99.98 447 103.55 453.18 107.12 447 110.69 440.81 114.27 440.81 107.12"/><polygon class="cls-19" points="440.81 121.41 440.81 114.27 447 117.84 453.18 121.41 447 124.98 440.81 128.55 440.81 121.41"/><polygon class="cls-20" points="428.44 114.27 428.44 121.41 422.26 117.84 416.07 114.27 422.26 110.69 428.44 107.12 428.44 114.27"/><polygon class="cls-21" points="428.44 99.98 428.44 107.12 422.26 103.55 416.07 99.98 422.26 96.41 428.44 92.84 428.44 99.98"/><polygon class="cls-22" points="428.44 99.98 428.44 92.84 434.63 96.41 440.81 99.98 434.63 103.55 428.44 107.12 428.44 99.98"/><polygon class="cls-23" points="428.44 114.27 428.44 107.12 434.63 110.69 440.81 114.27 434.63 117.84 428.44 121.41 428.44 114.27"/><polygon class="cls-24" points="416.07 107.12 416.07 114.27 409.89 110.69 403.7 107.12 409.89 103.55 416.07 99.98 416.07 107.12"/><polygon class="cls-25" points="416.07 107.12 416.07 99.98 422.26 103.55 428.44 107.12 422.26 110.69 416.07 114.27 416.07 107.12"/><polygon class="cls-26" points="465.55 135.69 465.55 142.83 459.37 139.26 453.18 135.69 459.37 132.12 465.55 128.55 465.55 135.69"/><polygon class="cls-27" points="403.7 71.41 403.7 107.12 434.63 89.27 465.55 71.41 434.63 53.56 403.7 35.7 403.7 71.41"/><polygon class="cls-28" points="403.7 99.98 403.7 107.12 409.89 103.55 416.07 99.98 409.89 96.41 403.7 92.84 403.7 99.98"/><polygon class="cls-29" points="403.7 85.7 403.7 92.84 409.89 89.27 416.07 85.7 409.89 82.13 403.7 78.56 403.7 85.7"/><polygon class="cls-30" points="403.7 71.42 403.7 78.56 409.89 74.99 416.07 71.42 409.89 67.84 403.7 64.27 403.7 71.42"/><polygon class="cls-31" points="403.7 57.13 403.7 64.27 409.89 60.7 416.07 57.13 409.89 53.56 403.7 49.99 403.7 57.13"/><polygon class="cls-32" points="403.7 42.85 403.7 49.99 409.89 46.42 416.07 42.85 409.89 39.28 403.7 35.71 403.7 42.85"/><polygon class="cls-29" points="416.07 92.84 416.07 99.98 422.26 96.41 428.44 92.84 422.26 89.27 416.07 85.7 416.07 92.84"/><polygon class="cls-33" points="416.07 78.56 416.07 85.7 422.26 82.13 428.44 78.56 422.26 74.99 416.07 71.42 416.07 78.56"/><polygon class="cls-31" points="416.07 64.27 416.07 71.42 422.26 67.84 428.44 64.27 422.26 60.7 416.07 57.13 416.07 64.27"/><polygon class="cls-32" points="416.07 49.99 416.07 57.13 422.26 53.56 428.44 49.99 422.26 46.42 416.07 42.85 416.07 49.99"/><polygon class="cls-34" points="416.07 49.99 416.07 42.85 409.89 46.42 403.7 49.99 409.89 53.56 416.07 57.13 416.07 49.99"/><polygon class="cls-35" points="416.07 64.27 416.07 57.13 409.89 60.7 403.7 64.27 409.89 67.84 416.07 71.42 416.07 64.27"/><polygon class="cls-36" points="416.07 78.56 416.07 71.42 409.89 74.99 403.7 78.56 409.89 82.13 416.07 85.7 416.07 78.56"/><polygon class="cls-37" points="416.07 92.84 416.07 85.7 409.89 89.27 403.7 92.84 409.89 96.41 416.07 99.98 416.07 92.84"/><polygon class="cls-38" points="428.44 85.7 428.44 92.84 434.63 89.27 440.81 85.7 434.63 82.13 428.44 78.56 428.44 85.7"/><polygon class="cls-31" points="428.44 71.42 428.44 78.56 434.63 74.99 440.81 71.42 434.63 67.84 428.44 64.27 428.44 71.42"/><polygon class="cls-32" points="428.44 57.13 428.44 64.27 434.63 60.7 440.81 57.13 434.63 53.56 428.44 49.99 428.44 57.13"/><polygon class="cls-34" points="428.44 57.13 428.44 49.99 422.26 53.56 416.07 57.13 422.26 60.7 428.44 64.27 428.44 57.13"/><polygon class="cls-35" points="428.44 71.42 428.44 64.27 422.26 67.84 416.07 71.42 422.26 74.99 428.44 78.56 428.44 71.42"/><polygon class="cls-39" points="428.44 85.7 428.44 78.56 422.26 82.13 416.07 85.7 422.26 89.27 428.44 92.84 428.44 85.7"/><polygon class="cls-31" points="440.81 78.56 440.81 85.7 447 82.13 453.18 78.56 447 74.99 440.81 71.42 440.81 78.56"/><polygon class="cls-40" points="440.81 64.27 440.81 71.42 447 67.84 453.18 64.27 447 60.7 440.81 57.13 440.81 64.27"/><polygon class="cls-34" points="440.81 64.27 440.81 57.13 434.63 60.7 428.44 64.27 434.63 67.84 440.81 71.42 440.81 64.27"/><polygon class="cls-35" points="440.81 78.56 440.81 71.42 434.63 74.99 428.44 78.56 434.63 82.13 440.81 85.7 440.81 78.56"/><polygon class="cls-41" points="453.18 71.42 453.18 78.56 459.37 74.99 465.55 71.42 459.37 67.84 453.18 64.27 453.18 71.42"/><polygon class="cls-42" points="453.18 71.42 453.18 64.27 447 67.84 440.81 71.42 447 74.99 453.18 78.56 453.18 71.42"/><polygon class="cls-43" points="465.55 35.71 465.55 71.42 434.63 53.56 403.7 35.71 434.63 17.85 465.55 0 465.55 35.71"/><polygon class="cls-44" points="465.55 64.27 465.55 71.42 459.37 67.84 453.18 64.27 459.37 60.7 465.55 57.13 465.55 64.27"/><polygon class="cls-45" points="465.55 49.99 465.55 57.13 459.37 53.56 453.18 49.99 459.37 46.42 465.55 42.85 465.55 49.99"/><polygon class="cls-46" points="465.55 35.71 465.55 42.85 459.37 39.28 453.18 35.71 459.37 32.14 465.55 28.57 465.55 35.71"/><polygon class="cls-47" points="465.55 21.43 465.55 28.57 459.37 25 453.18 21.43 459.37 17.85 465.55 14.28 465.55 21.43"/><polygon class="cls-48" points="465.55 7.14 465.55 14.28 459.37 10.71 453.18 7.14 459.37 3.57 465.55 0 465.55 7.14"/><polygon class="cls-49" points="453.18 57.13 453.18 64.27 447 60.7 440.81 57.13 447 53.56 453.18 49.99 453.18 57.13"/><polygon class="cls-50" points="453.18 42.85 453.18 49.99 447 46.42 440.81 42.85 447 39.28 453.18 35.71 453.18 42.85"/><polygon class="cls-49" points="453.18 28.57 453.18 35.71 447 32.14 440.81 28.57 447 25 453.18 21.43 453.18 28.57"/><polygon class="cls-51" points="453.18 14.28 453.18 21.43 447 17.85 440.81 14.28 447 10.71 453.18 7.14 453.18 14.28"/><polygon class="cls-52" points="453.18 14.28 453.18 7.14 459.37 10.71 465.55 14.28 459.37 17.85 453.18 21.43 453.18 14.28"/><polygon class="cls-53" points="453.18 28.57 453.18 21.43 459.37 25 465.55 28.57 459.37 32.14 453.18 35.71 453.18 28.57"/><polygon class="cls-54" points="453.18 42.85 453.18 35.71 459.37 39.28 465.55 42.85 459.37 46.42 453.18 49.99 453.18 42.85"/><polygon class="cls-55" points="453.18 57.13 453.18 49.99 459.37 53.56 465.55 57.13 459.37 60.7 453.18 64.27 453.18 57.13"/><polygon class="cls-56" points="440.81 49.99 440.81 57.13 434.63 53.56 428.44 49.99 434.63 46.42 440.81 42.85 440.81 49.99"/><polygon class="cls-57" points="440.81 35.71 440.81 42.85 434.63 39.28 428.44 35.71 434.63 32.14 440.81 28.57 440.81 35.71"/><polygon class="cls-58" points="440.81 21.43 440.81 28.57 434.63 25 428.44 21.43 434.63 17.85 440.81 14.28 440.81 21.43"/><polygon class="cls-59" points="440.81 21.43 440.81 14.28 447 17.85 453.18 21.43 447 25 440.81 28.57 440.81 21.43"/><polygon class="cls-60" points="440.81 35.71 440.81 28.57 447 32.14 453.18 35.71 447 39.28 440.81 42.85 440.81 35.71"/><polygon class="cls-61" points="440.81 49.99 440.81 42.85 447 46.42 453.18 49.99 447 53.56 440.81 57.13 440.81 49.99"/><polygon class="cls-62" points="428.44 42.85 428.44 49.99 422.26 46.42 416.07 42.85 422.26 39.28 428.44 35.71 428.44 42.85"/><polygon class="cls-63" points="428.44 28.57 428.44 35.71 422.26 32.14 416.07 28.57 422.26 25 428.44 21.43 428.44 28.57"/><polygon class="cls-64" points="428.44 28.57 428.44 21.43 434.63 25 440.81 28.57 434.63 32.14 428.44 35.71 428.44 28.57"/><polygon class="cls-65" points="428.44 42.85 428.44 35.71 434.63 39.28 440.81 42.85 434.63 46.42 428.44 49.99 428.44 42.85"/><polygon class="cls-66" points="416.07 35.71 416.07 42.85 409.89 39.28 403.7 35.71 409.89 32.14 416.07 28.57 416.07 35.71"/><polygon class="cls-67" points="416.07 35.71 416.07 28.57 422.26 32.14 428.44 35.71 422.26 39.28 416.07 42.85 416.07 35.71"/></g></g></svg>