<svg xmlns="http://www.w3.org/2000/svg" viewBox="0 0 147.51 332.22"><defs><style>.cls-1{fill:#abc114;}.cls-2{fill:#93ba21;}.cls-3{fill:#99ba1f;}.cls-4{fill:#c2c917;}.cls-5{fill:#dad100;}.cls-6{fill:#80b229;}.cls-7{fill:#5aa632;}.cls-8{fill:#46a135;}.cls-9{fill:#83b328;}.cls-10{fill:#a6c018;}.cls-11{fill:#92bb22;}.cls-12{fill:#b9c606;}.cls-13{fill:#a7c017;}.cls-14{fill:#d9cf00;}.cls-15{fill:#cdcd09;}.cls-16{fill:#f4e02d;}.cls-17{fill:#dfd319;}.cls-18{fill:#3dab87;}.cls-19{fill:#61b078;}.cls-20{fill:#64b06c;}.cls-21{fill:#2dab96;}.cls-22{fill:#48ad83;}.cls-23{fill:#20a995;}.cls-24{fill:#37ab89;}.cls-25{fill:#3bac8d;}.cls-26{fill:#5fb075;}.cls-27{fill:#49ad86;}.cls-28{fill:#4eab73;}.cls-29{fill:#53ac72;}.cls-30{fill:#61b179;}.cls-31{fill:#00a7a8;}.cls-32{fill:#44ad8a;}.cls-33{fill:#55ac6c;}.cls-34{fill:#58ab5a;}.cls-35{fill:#47a656;}.cls-36{fill:#67b162;}.cls-37{fill:#0c594d;}.cls-38{fill:#12664d;}.cls-39{fill:#157e42;}.cls-40{fill:#349136;}.cls-41{fill:#2b8a36;}.cls-42{fill:#0d7946;}.cls-43{fill:#117d46;}.cls-44{fill:#419c36;}.cls-45{fill:#4da434;}.cls-46{fill:#71b150;}.cls-47{fill:#65ae4c;}.cls-48{fill:#7ab45f;}.cls-49{fill:#60ac58;}.cls-50{fill:#6fb360;}.cls-51{fill:#6db16a;}.cls-52{fill:#1b7e44;}.cls-53{fill:#409636;}</style></defs><title>Asset 26</title><g id="Layer_2" data-name="Layer 2"><g id="Layer_1-2" data-name="Layer 1"><path class="cls-1" d="M58.76,106.11a.82.82,0,0,1-.43-.12.87.87,0,0,1-.44-.76V70.45a.89.89,0,0,1,.44-.76.87.87,0,0,1,.88,0L88.36,87.09a.87.87,0,0,1,0,1.5L59.21,106A.9.9,0,0,1,58.76,106.11ZM59.64,72v31.7L86.21,87.84Z"/><path class="cls-2" d="M88.33,123.5a.92.92,0,0,1-.43-.11.89.89,0,0,1-.44-.76V87.84a.87.87,0,0,1,1.32-.75l29.15,17.39a.88.88,0,0,1,0,1.51L88.78,123.38A.89.89,0,0,1,88.33,123.5Zm.88-34.12v31.71l26.57-15.86Z"/><path class="cls-3" d="M117.48,106.11A.93.93,0,0,1,117,106L87.88,88.59a.87.87,0,0,1,0-1.5L117,69.7a.87.87,0,0,1,.88,0,.86.86,0,0,1,.45.76v34.78a.86.86,0,0,1-.45.76A.82.82,0,0,1,117.48,106.11ZM90,87.84l26.58,15.86V72Z"/><path class="cls-2" d="M117.48,106.11a.82.82,0,0,1-.43-.12.87.87,0,0,1-.44-.76V70.45a.87.87,0,0,1,1.32-.75l29.15,17.39a.87.87,0,0,1,0,1.5L117.93,106A.9.9,0,0,1,117.48,106.11ZM118.36,72V103.7l26.57-15.86Z"/><path class="cls-4" d="M88.33,88.71a.92.92,0,0,1-.45-.12L58.73,71.2a.9.9,0,0,1-.43-.75.87.87,0,0,1,.43-.75L87.88,52.3a.89.89,0,0,1,.88,0,.87.87,0,0,1,.45.75V87.84a.9.9,0,0,1-.45.76A.92.92,0,0,1,88.33,88.71ZM60.88,70.45,87.46,86.3V54.59Z"/><path class="cls-1" d="M88.33,88.71a.92.92,0,0,1-.43-.11.89.89,0,0,1-.44-.76V53.05a.88.88,0,0,1,1.32-.75l29.15,17.4a.85.85,0,0,1,.43.75.88.88,0,0,1-.43.75L88.78,88.59A.89.89,0,0,1,88.33,88.71Zm.88-34.12V86.3l26.57-15.85Z"/><path class="cls-5" d="M59.18,106.1a.89.89,0,0,1-.45-.12L29.58,88.59a.87.87,0,0,1,0-1.5L58.73,69.7a.87.87,0,0,1,1.32.75v34.78a.89.89,0,0,1-.44.76A.81.81,0,0,1,59.18,106.1ZM31.73,87.84,58.3,103.69V72Z"/><path class="cls-6" d="M146.63,88.71a.86.86,0,0,1-.44-.12L117,71.2a.89.89,0,0,1-.42-.75.86.86,0,0,1,.42-.75l29.16-17.4a.87.87,0,0,1,.87,0,.85.85,0,0,1,.45.75V87.84a.88.88,0,0,1-.45.76A.92.92,0,0,1,146.63,88.71ZM119.18,70.45,145.76,86.3V54.59Z"/><path class="cls-7" d="M.88,106.1A.81.81,0,0,1,.45,106a.88.88,0,0,1-.45-.76V70.45a.86.86,0,0,1,.45-.76.85.85,0,0,1,.87,0L30.48,87.09a.88.88,0,0,1,0,1.5L1.32,106A.86.86,0,0,1,.88,106.1ZM1.75,72v31.7L28.33,87.84Z"/><path class="cls-7" d="M.88,140.89a.82.82,0,0,1-.43-.12A.86.86,0,0,1,0,140V105.23a.88.88,0,0,1,1.32-.75l29.16,17.39a.89.89,0,0,1,.42.75.86.86,0,0,1-.42.75L1.32,140.77A.86.86,0,0,1,.88,140.89Zm.87-34.12v31.71l26.58-15.86Z"/><path class="cls-7" d="M30,123.5a.82.82,0,0,1-.43-.12.86.86,0,0,1-.45-.76V87.84a.88.88,0,0,1,.45-.76.87.87,0,0,1,.88,0l29.15,17.39a.89.89,0,0,1,.42.75.86.86,0,0,1-.42.75L30.48,123.37A.84.84,0,0,1,30,123.5Zm.87-34.12v31.71l26.58-15.86Z"/><path class="cls-8" d="M30,123.5a.81.81,0,0,1-.45-.13L.43,106a.85.85,0,0,1-.43-.75.88.88,0,0,1,.43-.75L29.58,87.09a.87.87,0,0,1,1.32.75v34.78a.87.87,0,0,1-.44.76A.82.82,0,0,1,30,123.5ZM2.58,105.23l26.57,15.86V89.38Z"/><path class="cls-9" d="M146.63,53.92a.86.86,0,0,1-.44-.12L117,36.41a.88.88,0,0,1,0-1.5l29.16-17.39a.88.88,0,0,1,1.32.75V53.05a.88.88,0,0,1-.45.76A.81.81,0,0,1,146.63,53.92ZM119.18,35.66l26.58,15.85V19.81Z"/><path class="cls-3" d="M117.48,71.32a.84.84,0,0,1-.45-.13L87.88,53.8a.85.85,0,0,1-.43-.75.88.88,0,0,1,.43-.75L117,34.91a.87.87,0,0,1,.88,0,.88.88,0,0,1,.45.76V70.44a.86.86,0,0,1-.45.76A.82.82,0,0,1,117.48,71.32ZM90,53.05l26.58,15.86V37.2Z"/><path class="cls-10" d="M117.48,36.53a.92.92,0,0,1-.45-.12L87.88,19a.88.88,0,0,1-.43-.75.85.85,0,0,1,.43-.75L117,.12a.89.89,0,0,1,.88,0,.85.85,0,0,1,.45.75V35.66a.88.88,0,0,1-.45.76A.92.92,0,0,1,117.48,36.53ZM90,18.27l26.58,15.85V2.41Z"/><path class="cls-11" d="M117.48,36.53a.92.92,0,0,1-.43-.11.89.89,0,0,1-.44-.76V.87a.88.88,0,0,1,1.32-.75l29.15,17.4a.85.85,0,0,1,.43.75.88.88,0,0,1-.43.75L117.93,36.41A.89.89,0,0,1,117.48,36.53Zm.88-34.12V34.12l26.57-15.85Z"/><path class="cls-2" d="M117.48,71.32a.82.82,0,0,1-.43-.12.87.87,0,0,1-.44-.76V35.66a.89.89,0,0,1,.44-.76.87.87,0,0,1,.88,0L147.08,52.3a.88.88,0,0,1,.43.75.85.85,0,0,1-.43.75L117.93,71.19A.81.81,0,0,1,117.48,71.32Zm.88-34.12V68.91l26.57-15.86Z"/><path class="cls-12" d="M88.33,53.92a.92.92,0,0,1-.45-.12L58.73,36.41a.87.87,0,0,1,0-1.5L87.88,17.52a.88.88,0,0,1,1.33.75V53.05a.9.9,0,0,1-.45.76A.81.81,0,0,1,88.33,53.92ZM60.88,35.66,87.46,51.51V19.81Z"/><path class="cls-13" d="M88.33,53.92a.81.81,0,0,1-.43-.11.89.89,0,0,1-.44-.76V18.27a.87.87,0,0,1,1.32-.75l29.15,17.39a.87.87,0,0,1,0,1.5L88.78,53.8A.89.89,0,0,1,88.33,53.92Zm.88-34.11v31.7l26.57-15.85Z"/><path class="cls-14" d="M59.18,71.32a.81.81,0,0,1-.45-.13L29.58,53.8a.85.85,0,0,1-.43-.75.88.88,0,0,1,.43-.75L58.73,34.91a.87.87,0,0,1,.88,0,.89.89,0,0,1,.44.76V70.44a.87.87,0,0,1-.44.76A.82.82,0,0,1,59.18,71.32ZM31.73,53.05,58.3,68.91V37.2Z"/><path class="cls-15" d="M59.18,71.32a.82.82,0,0,1-.43-.12.86.86,0,0,1-.45-.76V35.66a.88.88,0,0,1,.45-.76.87.87,0,0,1,.88,0L88.78,52.3a.9.9,0,0,1,.43.75.87.87,0,0,1-.43.75L59.63,71.19A.84.84,0,0,1,59.18,71.32Zm.87-34.12V68.91L86.63,53.05Z"/><path class="cls-16" d="M30,88.71a.89.89,0,0,1-.45-.12L.43,71.2A.88.88,0,0,1,0,70.45a.85.85,0,0,1,.43-.75L29.58,52.3a.89.89,0,0,1,.88,0,.86.86,0,0,1,.44.75V87.84a.89.89,0,0,1-.44.76A.92.92,0,0,1,30,88.71ZM2.58,70.45,29.15,86.3V54.59Z"/><path class="cls-17" d="M30,88.71a.92.92,0,0,1-.43-.11.88.88,0,0,1-.45-.76V53.05a.85.85,0,0,1,.45-.75.87.87,0,0,1,.88,0L59.63,69.7a.86.86,0,0,1,.42.75.89.89,0,0,1-.42.75L30.48,88.59A.92.92,0,0,1,30,88.71Zm.87-34.12V86.3L57.48,70.45Z"/><path class="cls-8" d="M59.18,140.89a.89.89,0,0,1-.45-.12L29.58,123.38a.88.88,0,0,1-.43-.75.85.85,0,0,1,.43-.75l29.15-17.4a.88.88,0,0,1,1.32.75V140a.89.89,0,0,1-.44.76A.92.92,0,0,1,59.18,140.89ZM31.73,122.63,58.3,138.48V106.77Z"/><path class="cls-18" d="M146.63,262.64a.86.86,0,0,1-.44-.12L117,245.13a.88.88,0,0,1,0-1.5l29.16-17.39a.88.88,0,0,1,1.32.75v34.78a.88.88,0,0,1-.45.76A.81.81,0,0,1,146.63,262.64Zm-27.45-18.26,26.58,15.85v-31.7Z"/><path class="cls-19" d="M117.48,245.25a.92.92,0,0,1-.43-.11.89.89,0,0,1-.44-.76V209.59a.88.88,0,0,1,1.32-.75l29.15,17.4a.85.85,0,0,1,.43.75.88.88,0,0,1-.43.75l-29.15,17.39A.89.89,0,0,1,117.48,245.25Zm.88-34.12v31.71L144.93,227Z"/><path class="cls-20" d="M146.63,227.86a.78.78,0,0,1-.44-.13L117,210.34a.86.86,0,0,1-.42-.75.89.89,0,0,1,.42-.75l29.16-17.39a.85.85,0,0,1,.87,0,.88.88,0,0,1,.45.76V227a.86.86,0,0,1-.45.76A.82.82,0,0,1,146.63,227.86Zm-27.45-18.27,26.58,15.86V193.74Z"/><path class="cls-21" d="M146.63,297.43a.86.86,0,0,1-.44-.12L117,279.92a.89.89,0,0,1-.42-.75.86.86,0,0,1,.42-.75L146.19,261a.88.88,0,0,1,1.32.75v34.79a.88.88,0,0,1-.45.76A.92.92,0,0,1,146.63,297.43Zm-27.45-18.26L145.76,295V263.31Z"/><path class="cls-22" d="M117.48,280a.82.82,0,0,1-.43-.12.87.87,0,0,1-.44-.76V244.38a.89.89,0,0,1,.44-.76.87.87,0,0,1,.88,0L147.08,261a.88.88,0,0,1,.43.75.85.85,0,0,1-.43.75l-29.15,17.39A.81.81,0,0,1,117.48,280Zm.88-34.12v31.71l26.57-15.86Z"/><path class="cls-23" d="M117.48,314.82a.92.92,0,0,1-.45-.12L87.88,297.31a.87.87,0,0,1,0-1.5L117,278.42a.87.87,0,0,1,.88,0,.86.86,0,0,1,.45.76V314a.88.88,0,0,1-.45.76A.81.81,0,0,1,117.48,314.82ZM90,296.56l26.58,15.85V280.7Z"/><path class="cls-24" d="M117.48,280a.84.84,0,0,1-.45-.13L87.88,262.52a.85.85,0,0,1-.43-.75.88.88,0,0,1,.43-.75L117,243.63a.89.89,0,0,1,.88,0,.88.88,0,0,1,.45.76v34.78a.86.86,0,0,1-.45.76A.82.82,0,0,1,117.48,280ZM90,261.77l26.58,15.86V245.92Z"/><path class="cls-25" d="M117.48,314.82a.81.81,0,0,1-.43-.11.89.89,0,0,1-.44-.76V279.17a.87.87,0,0,1,1.32-.75l29.15,17.39a.87.87,0,0,1,0,1.5L117.93,314.7A.89.89,0,0,1,117.48,314.82Zm.88-34.12v31.71l26.57-15.85Z"/><path class="cls-26" d="M88.33,262.64a.81.81,0,0,1-.43-.11.89.89,0,0,1-.44-.76V227a.87.87,0,0,1,1.32-.75l29.15,17.39a.87.87,0,0,1,0,1.5L88.78,262.52A.89.89,0,0,1,88.33,262.64Zm.88-34.11v31.7l26.57-15.85Z"/><path class="cls-27" d="M88.33,297.43a.92.92,0,0,1-.43-.11.89.89,0,0,1-.44-.76V261.77a.87.87,0,0,1,1.32-.75l29.15,17.4a.85.85,0,0,1,.43.75.88.88,0,0,1-.43.75L88.78,297.31A.89.89,0,0,1,88.33,297.43Zm.88-34.12V295l26.57-15.85Z"/><path class="cls-28" d="M117.48,245.25a.92.92,0,0,1-.45-.12L87.88,227.74a.88.88,0,0,1-.43-.75.85.85,0,0,1,.43-.75L117,208.84a.87.87,0,0,1,.88,0,.85.85,0,0,1,.45.75v34.79a.88.88,0,0,1-.45.76A.92.92,0,0,1,117.48,245.25ZM90,227l26.58,15.85V211.13Z"/><path class="cls-29" d="M88.33,262.64a.92.92,0,0,1-.45-.12L58.73,245.13a.87.87,0,0,1,0-1.5l29.15-17.39a.88.88,0,0,1,1.33.75v34.78a.9.9,0,0,1-.45.76A.81.81,0,0,1,88.33,262.64ZM60.88,244.38l26.58,15.85v-31.7Z"/><path class="cls-30" d="M59.18,280a.82.82,0,0,1-.43-.12.86.86,0,0,1-.45-.76V244.38a.88.88,0,0,1,.45-.76.87.87,0,0,1,.88,0L88.78,261a.9.9,0,0,1,.43.75.87.87,0,0,1-.43.75L59.63,279.91A.84.84,0,0,1,59.18,280Zm.87-34.12v31.71l26.58-15.86Z"/><path class="cls-31" d="M146.63,332.22a.78.78,0,0,1-.44-.13L117,314.7a.86.86,0,0,1-.42-.75.89.89,0,0,1,.42-.75l29.16-17.39a.85.85,0,0,1,.87,0,.88.88,0,0,1,.45.76v34.78a.86.86,0,0,1-.45.76A.82.82,0,0,1,146.63,332.22ZM119.18,314l26.58,15.86V298.1Z"/><path class="cls-32" d="M88.33,297.43a.92.92,0,0,1-.45-.12L58.73,279.92a.9.9,0,0,1-.43-.75.87.87,0,0,1,.43-.75L87.88,261a.89.89,0,0,1,.88,0,.9.9,0,0,1,.45.76v34.79a.9.9,0,0,1-.45.76A.92.92,0,0,1,88.33,297.43ZM60.88,279.17,87.46,295V263.31Z"/><path class="cls-33" d="M59.18,280a.81.81,0,0,1-.45-.13L29.58,262.52a.85.85,0,0,1-.43-.75.88.88,0,0,1,.43-.75l29.15-17.39a.87.87,0,0,1,1.32.75v34.78a.87.87,0,0,1-.44.76A.82.82,0,0,1,59.18,280ZM31.73,261.77,58.3,277.63V245.92Z"/><path class="cls-34" d="M59.18,245.25a.89.89,0,0,1-.45-.12L29.58,227.74a.88.88,0,0,1-.43-.75.85.85,0,0,1,.43-.75l29.15-17.4a.88.88,0,0,1,1.32.75v34.79a.89.89,0,0,1-.44.76A.92.92,0,0,1,59.18,245.25ZM31.73,227,58.3,242.84V211.13Z"/><path class="cls-35" d="M30,262.64a.89.89,0,0,1-.45-.12L.43,245.13a.87.87,0,0,1,0-1.5l29.15-17.39a.87.87,0,0,1,1.32.75v34.78a.89.89,0,0,1-.44.76A.81.81,0,0,1,30,262.64ZM2.58,244.38l26.57,15.85v-31.7Z"/><path class="cls-36" d="M30,262.64a.81.81,0,0,1-.43-.11.88.88,0,0,1-.45-.76V227a.86.86,0,0,1,.45-.76.87.87,0,0,1,.88,0l29.15,17.39a.88.88,0,0,1,0,1.5L30.48,262.52A.92.92,0,0,1,30,262.64Zm.87-34.11v31.7l26.58-15.85Z"/><path class="cls-37" d="M.88,245.25a.92.92,0,0,1-.43-.11.88.88,0,0,1-.45-.76V209.59a.85.85,0,0,1,.45-.75.85.85,0,0,1,.87,0l29.16,17.4a.86.86,0,0,1,.42.75.89.89,0,0,1-.42.75L1.32,245.13A.86.86,0,0,1,.88,245.25Zm.87-34.12v31.71L28.33,227Z"/><path class="cls-38" d="M.88,210.46a.81.81,0,0,1-.43-.11.88.88,0,0,1-.45-.76V174.81a.86.86,0,0,1,.45-.76.85.85,0,0,1,.87,0l29.16,17.39a.88.88,0,0,1,0,1.5L1.32,210.34A.86.86,0,0,1,.88,210.46Zm.87-34.11v31.7L28.33,192.2Z"/><path class="cls-39" d="M.88,175.68a.82.82,0,0,1-.43-.12A.86.86,0,0,1,0,174.8V140a.88.88,0,0,1,.45-.76.85.85,0,0,1,.87,0l29.16,17.39a.89.89,0,0,1,.42.75.86.86,0,0,1-.42.75L1.32,175.55A.78.78,0,0,1,.88,175.68Zm.87-34.12v31.71l26.58-15.86Z"/><path class="cls-38" d="M30,227.86a.82.82,0,0,1-.43-.12.86.86,0,0,1-.45-.76V192.2a.88.88,0,0,1,.45-.76.87.87,0,0,1,.88,0l29.15,17.39a.89.89,0,0,1,.42.75.86.86,0,0,1-.42.75L30.48,227.73A.84.84,0,0,1,30,227.86Zm.87-34.12v31.71l26.58-15.86Z"/><path class="cls-39" d="M30,193.07a.92.92,0,0,1-.43-.11.88.88,0,0,1-.45-.76V157.41a.88.88,0,0,1,.45-.76.87.87,0,0,1,.88,0l29.15,17.4a.86.86,0,0,1,.42.75.89.89,0,0,1-.42.75L30.48,193A.92.92,0,0,1,30,193.07ZM30.9,159v31.71l26.58-15.85Z"/><path class="cls-40" d="M30,158.28a.81.81,0,0,1-.43-.11.88.88,0,0,1-.45-.76V122.63a.86.86,0,0,1,.45-.76.87.87,0,0,1,.88,0l29.15,17.39a.88.88,0,0,1,0,1.5L30.48,158.16A.92.92,0,0,1,30,158.28Zm.87-34.11v31.7L57.48,140Z"/><path class="cls-41" d="M30,158.28a.89.89,0,0,1-.45-.12L.43,140.77a.87.87,0,0,1,0-1.5l29.15-17.39a.87.87,0,0,1,1.32.75v34.78a.89.89,0,0,1-.44.76A.81.81,0,0,1,30,158.28ZM2.58,140l26.57,15.85v-31.7Z"/><path class="cls-42" d="M30,193.07a.89.89,0,0,1-.45-.12L.43,175.56a.88.88,0,0,1-.43-.75.85.85,0,0,1,.43-.75l29.15-17.4a.87.87,0,0,1,1.32.75V192.2a.89.89,0,0,1-.44.76A.92.92,0,0,1,30,193.07ZM2.58,174.81l26.57,15.85V159Z"/><path class="cls-40" d="M59.18,175.68a.82.82,0,0,1-.43-.12.86.86,0,0,1-.45-.76V140a.88.88,0,0,1,.45-.76.87.87,0,0,1,.88,0l29.15,17.39a.9.9,0,0,1,.43.75.87.87,0,0,1-.43.75L59.63,175.55A.84.84,0,0,1,59.18,175.68Zm.87-34.12v31.71l26.58-15.86Z"/><path class="cls-41" d="M59.18,175.68a.81.81,0,0,1-.45-.13L29.58,158.16a.85.85,0,0,1-.43-.75.88.88,0,0,1,.43-.75l29.15-17.39a.87.87,0,0,1,.88,0,.89.89,0,0,1,.44.76V174.8a.87.87,0,0,1-.44.76A.82.82,0,0,1,59.18,175.68ZM31.73,157.41,58.3,173.27V141.56Z"/><path class="cls-43" d="M59.18,210.46a.89.89,0,0,1-.45-.12L29.58,193a.87.87,0,0,1,0-1.5l29.15-17.39a.87.87,0,0,1,1.32.75v34.78a.89.89,0,0,1-.44.76A.81.81,0,0,1,59.18,210.46ZM31.73,192.2,58.3,208.05v-31.7Z"/><path class="cls-44" d="M117.48,175.68a.84.84,0,0,1-.45-.13L87.88,158.16a.85.85,0,0,1-.43-.75.88.88,0,0,1,.43-.75L117,139.27a.87.87,0,0,1,.88,0,.88.88,0,0,1,.45.76V174.8a.86.86,0,0,1-.45.76A.82.82,0,0,1,117.48,175.68ZM90,157.41l26.58,15.86V141.56Z"/><path class="cls-8" d="M88.33,158.28a.92.92,0,0,1-.45-.12L58.73,140.77a.87.87,0,0,1,0-1.5l29.15-17.39a.88.88,0,0,1,1.33.75v34.78a.9.9,0,0,1-.45.76A.81.81,0,0,1,88.33,158.28ZM60.88,140l26.58,15.85v-31.7Z"/><path class="cls-45" d="M88.33,158.28a.81.81,0,0,1-.43-.11.89.89,0,0,1-.44-.76V122.63a.87.87,0,0,1,1.32-.75l29.15,17.39a.87.87,0,0,1,0,1.5L88.78,158.16A.89.89,0,0,1,88.33,158.28Zm.88-34.11v31.7L115.78,140Z"/><path class="cls-46" d="M146.63,193.07a.86.86,0,0,1-.44-.12L117,175.56a.89.89,0,0,1-.42-.75.86.86,0,0,1,.42-.75l29.16-17.4a.88.88,0,0,1,1.32.75V192.2a.88.88,0,0,1-.45.76A.92.92,0,0,1,146.63,193.07Zm-27.45-18.26,26.58,15.85V159Z"/><path class="cls-47" d="M117.48,210.46a.92.92,0,0,1-.45-.12L87.88,193a.87.87,0,0,1,0-1.5L117,174.06a.87.87,0,0,1,.88,0,.86.86,0,0,1,.45.76v34.78a.88.88,0,0,1-.45.76A.81.81,0,0,1,117.48,210.46ZM90,192.2l26.58,15.85v-31.7Z"/><path class="cls-48" d="M117.48,210.46a.81.81,0,0,1-.43-.11.89.89,0,0,1-.44-.76V174.81a.87.87,0,0,1,1.32-.75l29.15,17.39a.87.87,0,0,1,0,1.5l-29.15,17.39A.89.89,0,0,1,117.48,210.46Zm.88-34.11v31.7l26.57-15.85Z"/><path class="cls-49" d="M88.33,227.86a.84.84,0,0,1-.45-.13L58.73,210.34a.87.87,0,0,1-.43-.75.9.9,0,0,1,.43-.75l29.15-17.39a.87.87,0,0,1,.88,0,.9.9,0,0,1,.45.76V227a.88.88,0,0,1-.45.76A.82.82,0,0,1,88.33,227.86ZM60.88,209.59l26.58,15.86V193.74Z"/><path class="cls-50" d="M88.33,227.86a.82.82,0,0,1-.43-.12.87.87,0,0,1-.44-.76V192.2a.89.89,0,0,1,.44-.76.87.87,0,0,1,.88,0l29.15,17.39a.88.88,0,0,1,.43.75.85.85,0,0,1-.43.75L88.78,227.73A.81.81,0,0,1,88.33,227.86Zm.88-34.12v31.71l26.57-15.86Z"/><path class="cls-40" d="M88.33,193.07a.92.92,0,0,1-.43-.11.89.89,0,0,1-.44-.76V157.41a.89.89,0,0,1,.44-.76.87.87,0,0,1,.88,0l29.15,17.4a.85.85,0,0,1,.43.75.88.88,0,0,1-.43.75L88.78,193A.89.89,0,0,1,88.33,193.07ZM89.21,159v31.71l26.57-15.85Z"/><path class="cls-51" d="M59.18,245.25a.92.92,0,0,1-.43-.11.88.88,0,0,1-.45-.76V209.59a.85.85,0,0,1,.45-.75.87.87,0,0,1,.88,0l29.15,17.4a.87.87,0,0,1,.43.75.9.9,0,0,1-.43.75L59.63,245.13A.92.92,0,0,1,59.18,245.25Zm.87-34.12v31.71L86.63,227Z"/><path class="cls-52" d="M59.18,210.46a.81.81,0,0,1-.43-.11.88.88,0,0,1-.45-.76V174.81a.86.86,0,0,1,.45-.76.87.87,0,0,1,.88,0l29.15,17.39a.87.87,0,0,1,0,1.5L59.63,210.34A.92.92,0,0,1,59.18,210.46Zm.87-34.11v31.7L86.63,192.2Z"/><path class="cls-41" d="M88.33,193.07a.92.92,0,0,1-.45-.12L58.73,175.56a.9.9,0,0,1-.43-.75.87.87,0,0,1,.43-.75l29.15-17.4a.89.89,0,0,1,.88,0,.9.9,0,0,1,.45.76V192.2a.9.9,0,0,1-.45.76A.92.92,0,0,1,88.33,193.07ZM60.88,174.81l26.58,15.85V159Z"/><path class="cls-53" d="M117.48,175.68a.82.82,0,0,1-.43-.12.87.87,0,0,1-.44-.76V140a.89.89,0,0,1,.44-.76.87.87,0,0,1,.88,0l29.15,17.39a.88.88,0,0,1,.43.75.85.85,0,0,1-.43.75l-29.15,17.39A.81.81,0,0,1,117.48,175.68Zm.88-34.12v31.71l26.57-15.86Z"/><path class="cls-7" d="M59.18,140.89a.92.92,0,0,1-.43-.11.88.88,0,0,1-.45-.76V105.23a.85.85,0,0,1,.45-.75.87.87,0,0,1,.88,0l29.15,17.4a.87.87,0,0,1,.43.75.9.9,0,0,1-.43.75L59.63,140.77A.92.92,0,0,1,59.18,140.89Zm.87-34.12v31.71l26.58-15.85Z"/></g></g></svg>