<?xml version="1.0" encoding="utf-8"?>
<!-- Generator: Adobe Illustrator 22.1.0, SVG Export Plug-In . SVG Version: 6.00 Build 0)  -->
<svg version="1.1" id="Layer_1" xmlns="http://www.w3.org/2000/svg" xmlns:xlink="http://www.w3.org/1999/xlink" x="0px" y="0px"
	 viewBox="0 0 288 68" style="enable-background:new 0 0 288 68;" xml:space="preserve">
<style type="text/css">
	.st0{clip-path:url(#SVGID_2_);fill:#0079C1;}
	.st1{clip-path:url(#SVGID_2_);fill:#ED1C24;}
	.st2{clip-path:url(#SVGID_2_);fill:#FFFFFF;}
</style>
<g>
	<defs>
		<rect id="SVGID_1_" width="288" height="68"/>
	</defs>
	<clipPath id="SVGID_2_">
		<use xlink:href="#SVGID_1_"  style="overflow:visible;"/>
	</clipPath>
	<path class="st0" d="M9,32.8c0,1.4-0.6,2.1-2.3,2.1H5.4v-4.2c0.2,0,0.8,0,1,0h0.5C8.5,30.7,9,31.4,9,32.8 M12.4,38.2
		c0-2.2-1.8-2.9-3.9-3v-0.1c1.8-0.1,3.3-0.9,3.3-2.7c0-2-1.7-2.4-3.6-2.4C6,30,3.3,30,1,30v0.7c0.5,0,1.6,0,1.6,0.6V40
		c0,0.6-1.2,0.7-1.6,0.7v0.7c2.2-0.1,4.8,0,7,0C10.3,41.3,12.4,40.6,12.4,38.2 M9.5,38c0,1.8-0.6,2.6-2.8,2.6H5.4v-5h1.4
		C8.8,35.6,9.5,36.3,9.5,38"/>
	<path class="st0" d="M27,41.3c-1,0-2,0-3,0v-0.7c0.5,0,1.7,0,1.7-0.6v-8.1h0l-4.6,9.5h-0.6l-4.5-9.6h0V40c0,0.6,1.3,0.6,1.7,0.6
		l0,0.7c-1.3,0-3-0.1-4.2,0v-0.7c0.5,0,1.6,0,1.6-0.6v-8.7c0-0.6-1.1-0.6-1.6-0.6l0-0.7c1.4,0.1,3,0.1,4.4,0l3.8,8l3.9-8
		c1.4,0.1,3,0,4.3,0v0.7c-0.5,0-1.7,0-1.7,0.6V40c0,0.6,1.2,0.6,1.7,0.6v0.7C29,41.3,28,41.3,27,41.3"/>
	<path class="st0" d="M40.7,35.6c0,2.2-0.2,5.2-3.4,5.2c-3.2,0-3.5-3-3.5-5.2c0-2.2,0.2-5.2,3.5-5.2C40.5,30.5,40.7,33.5,40.7,35.6
		 M43.7,35.6c0-3.8-2.3-5.9-6.4-5.9c-4.1,0-6.5,2.1-6.5,5.9c0,3.8,2.3,5.9,6.5,5.9C41.5,41.5,43.7,39.4,43.7,35.6"/>
	<path class="st0" d="M85.2,22.9c-1.1,0-2,0.9-2,2c0,1.1,0.9,2,2,2c1.1,0,2-0.9,2-2C87.2,23.8,86.3,22.9,85.2,22.9 M85.2,26.5
		c-0.9,0-1.7-0.8-1.7-1.7c0-0.9,0.7-1.7,1.7-1.7c0.9,0,1.7,0.8,1.7,1.7C86.9,25.8,86.1,26.5,85.2,26.5"/>
	<path class="st0" d="M86.1,24.3c0-0.4-0.3-0.6-0.7-0.6h-0.9V26h0.3v-1h0.5l0.6,1h0.3l-0.7-1C85.9,24.9,86.1,24.7,86.1,24.3
		 M84.8,24.7v-0.8h0.5c0.4,0,0.6,0.1,0.6,0.4c0,0.3-0.2,0.4-0.6,0.4H84.8"/>
	<path class="st1" d="M67.1,17.8c-9.1,0-16.4,7.4-16.4,16.4c0,9.1,7.4,16.4,16.4,16.4c9.1,0,16.4-7.4,16.4-16.4
		C83.6,25.1,76.2,17.8,67.1,17.8"/>
	<path class="st0" d="M113.1,39.1l-0.7-2.5h-3.2l-0.7,2.5h-1.7l3.2-9.7h1.8l3.2,9.7H113.1z M111.1,32.1c-0.1-0.4-0.2-0.9-0.3-1.3h0
		c-0.1,0.3-0.2,0.9-0.3,1.3l-1,3.4h2.5L111.1,32.1z"/>
	<path class="st0" d="M122.4,39.2c-0.5,0-0.9-0.1-1.1-0.2v3.1h-1.7V31.9c0.7-0.4,1.7-0.5,2.6-0.5c2.3,0,3.6,1.4,3.6,3.9
		C125.7,37.7,124.4,39.2,122.4,39.2 M122.1,32.4c-0.3,0-0.6,0-0.9,0.2V38c0.2,0.1,0.5,0.1,0.8,0.1c1.4,0,2-1,2-2.9
		C124,33.4,123.5,32.4,122.1,32.4"/>
	<path class="st0" d="M130,39.2c-2,0-3.1-0.8-3.1-2.4c0-1.9,1.8-2.5,4.2-2.7v-0.4c0-0.9-0.5-1.3-1.5-1.3c-0.7,0-1.4,0.2-2,0.5
		l-0.4-1c0.7-0.3,1.7-0.6,2.6-0.6c1.7,0,2.8,0.8,2.8,2.6v4.7C132.1,39,131.1,39.2,130,39.2 M131.1,34.9c-1.7,0.2-2.6,0.7-2.6,1.9
		c0,0.9,0.5,1.4,1.6,1.4c0.4,0,0.8-0.1,1-0.2V34.9z"/>
	<path class="st0" d="M137.8,32.6c-0.2-0.1-0.5-0.2-0.8-0.2c-0.3,0-0.6,0.1-0.8,0.2v6.5h-1.7v-7.2c0.7-0.3,1.6-0.5,2.8-0.5
		c0.3,0,0.7,0,0.8,0L137.8,32.6z"/>
	<path class="st0" d="M141.9,39.2c-1.3,0-2-0.8-2-2.1v-4.5H139v-1.1h0.8v-1.7l1.7-0.5v2.2h1.2v1.1h-1.2v4.5c0,0.6,0.3,0.9,0.8,0.9
		c0.2,0,0.3,0,0.4-0.1V39C142.6,39.1,142.3,39.2,141.9,39.2"/>
	<path class="st0" d="M150.9,39.2c-2.2,0-3.2-1.7-3.2-4c0-2.3,1.1-3.9,3.2-3.9c2.2,0,3.2,1.7,3.2,3.9
		C154.1,37.5,153.1,39.2,150.9,39.2 M150.9,32.4c-1.1,0-1.5,1.3-1.5,2.8c0,1.6,0.4,2.8,1.5,2.8c1.1,0,1.5-1.3,1.5-2.8
		C152.4,33.6,152,32.4,150.9,32.4"/>
	<path class="st0" d="M157.7,32.6v6.5H156v-6.5h-0.8v-1.1h0.8v-0.9c0-1.6,0.9-2.5,2.5-2.5c0.2,0,0.3,0,0.4,0v1.1h-0.1
		c-0.8,0-1.1,0.5-1.1,1.4v1h1.2v1.1H157.7z"/>
	<path class="st0" d="M166.9,39.2c-1.1,0-2.2-0.2-2.9-0.5v-8.9c0.7-0.4,1.7-0.5,2.8-0.5c2.3,0,3.5,1.1,3.5,2.5
		c0,1.2-0.8,1.9-1.8,2.2v0c1.1,0.3,2.1,1.2,2.1,2.5C170.6,38.3,169.1,39.2,166.9,39.2 M166.8,30.3c-0.4,0-0.8,0-1.1,0.2v3.2h0.6
		c1.6,0,2.2-0.6,2.2-1.7C168.6,30.8,168,30.3,166.8,30.3 M166.4,34.4h-0.6v3.5c0.3,0.1,0.7,0.2,1.1,0.2c1.2,0,2-0.5,2-1.7
		C168.8,35,168,34.4,166.4,34.4"/>
	<path class="st0" d="M180,39.1l-0.6-6.4c0-0.4-0.1-0.8-0.1-1.1h0c-0.1,0.3-0.2,0.8-0.3,1.1l-1.9,6.4h-1l-1.8-6.4
		c-0.1-0.4-0.2-0.7-0.3-1.1h0c0,0.4,0,0.9-0.1,1.1l-0.6,6.4h-1.5l1.1-9.7h1.8l1.7,6.2c0.1,0.4,0.2,0.7,0.3,1.2h0
		c0.1-0.5,0.2-0.8,0.3-1.2l1.7-6.2h1.8l1.1,9.7H180z"/>
	<path class="st0" d="M186.5,39.2c-2.5,0-3.6-2.2-3.6-5c0-2.8,1.1-5,3.6-5c2.5,0,3.6,2.2,3.6,5C190.2,37.1,189,39.2,186.5,39.2
		 M186.5,30.4c-1.4,0-1.8,1.7-1.8,3.7c0,2.1,0.4,3.7,1.8,3.7c1.4,0,1.8-1.7,1.8-3.7C188.4,32.1,187.9,30.4,186.5,30.4"/>
	<polygon class="st0" points="197.4,30.6 197.4,33.5 200,33.5 200,34.7 197.4,34.7 197.4,39.1 195.6,39.1 195.6,29.4 200.3,29.4 
		200.3,30.6 	"/>
	<path class="st0" d="M202.6,30.2c-0.5,0-1-0.4-1-0.9c0-0.5,0.4-0.9,1-0.9c0.5,0,1,0.4,1,0.9C203.6,29.8,203.2,30.2,202.6,30.2
		 M201.8,31.5h1.7v7.6h-1.7V31.5z"/>
	<path class="st0" d="M209.6,39.1v-5.2c0-1-0.4-1.5-1.4-1.5c-0.4,0-0.8,0.1-1.1,0.2v6.5h-1.7v-7.2c0.8-0.3,1.8-0.5,2.8-0.5
		c2.2,0,3.2,0.9,3.2,2.5v5.2H209.6z"/>
	<path class="st0" d="M215.9,39.2c-2,0-3.1-0.8-3.1-2.4c0-1.9,1.8-2.5,4.2-2.7v-0.4c0-0.9-0.5-1.3-1.4-1.3c-0.7,0-1.4,0.2-2,0.5
		l-0.4-1c0.7-0.3,1.7-0.6,2.6-0.6c1.7,0,2.8,0.8,2.8,2.6v4.7C218,39,217,39.2,215.9,39.2 M217,34.9c-1.7,0.2-2.6,0.7-2.6,1.9
		c0,0.9,0.5,1.4,1.6,1.4c0.4,0,0.8-0.1,1-0.2V34.9z"/>
	<path class="st0" d="M224.7,39.1v-5.2c0-1-0.4-1.5-1.5-1.5c-0.4,0-0.8,0.1-1.1,0.2v6.5h-1.7v-7.2c0.8-0.3,1.8-0.5,2.8-0.5
		c2.2,0,3.2,0.9,3.2,2.5v5.2H224.7z"/>
	<path class="st0" d="M231,39.2c-1.8,0-3.1-1.6-3.1-4c0-2.4,1.3-3.9,3.1-3.9c0.7,0,1.4,0.2,1.8,0.5l-0.4,1c-0.3-0.2-0.7-0.3-1.1-0.3
		c-1,0-1.7,1.1-1.7,2.7c0,1.6,0.6,2.7,1.7,2.7c0.4,0,0.8-0.1,1.1-0.3l0.4,1C232.4,39,231.7,39.2,231,39.2"/>
	<path class="st0" d="M235,30.2c-0.5,0-1-0.4-1-0.9c0-0.5,0.4-0.9,1-0.9c0.5,0,1,0.4,1,0.9C236,29.8,235.5,30.2,235,30.2
		 M234.2,31.5h1.7v7.6h-1.7V31.5z"/>
	<path class="st0" d="M240.5,39.2c-2,0-3.1-0.8-3.1-2.4c0-1.9,1.8-2.5,4.2-2.7v-0.4c0-0.9-0.5-1.3-1.5-1.3c-0.7,0-1.4,0.2-2,0.5
		l-0.4-1c0.7-0.3,1.7-0.6,2.6-0.6c1.7,0,2.8,0.8,2.8,2.6v4.7C242.6,39,241.6,39.2,240.5,39.2 M241.6,34.9c-1.7,0.2-2.6,0.7-2.6,1.9
		c0,0.9,0.5,1.4,1.6,1.4c0.4,0,0.8-0.1,1-0.2V34.9z"/>
	<path class="st0" d="M256.5,39.2c-2.6,0-4.3-1.8-4.3-5c0-2.9,1.6-5,4.4-5c0.9,0,1.7,0.2,2.3,0.6l-0.5,1.1c-0.4-0.2-1-0.4-1.7-0.4
		c-1.8,0-2.8,1.5-2.8,3.8c0,2.4,1.1,3.6,2.4,3.6c0.4,0,0.7-0.1,1-0.2v-3.2h-1.5v-1.1h3.2v5.2C258.5,39,257.5,39.2,256.5,39.2"/>
	<path class="st0" d="M264.2,32.6c-0.2-0.1-0.5-0.2-0.8-0.2c-0.3,0-0.6,0.1-0.8,0.2v6.5h-1.7v-7.2c0.7-0.3,1.6-0.5,2.8-0.5
		c0.3,0,0.7,0,0.8,0L264.2,32.6z"/>
	<path class="st0" d="M268.4,39.2c-2.2,0-3.2-1.7-3.2-4c0-2.3,1.1-3.9,3.2-3.9c2.2,0,3.2,1.7,3.2,3.9
		C271.6,37.5,270.5,39.2,268.4,39.2 M268.4,32.4c-1.1,0-1.5,1.3-1.5,2.8c0,1.6,0.4,2.8,1.5,2.8c1.1,0,1.5-1.3,1.5-2.8
		C269.9,33.6,269.5,32.4,268.4,32.4"/>
	<path class="st0" d="M276.1,39.2c-2,0-3-0.8-3-2.6v-5.2h1.7v5.2c0,0.9,0.4,1.4,1.3,1.4c0.4,0,0.8-0.1,1.1-0.2v-6.4h1.7v7.2
		C278.3,39,277.2,39.2,276.1,39.2"/>
	<path class="st0" d="M283.6,39.2c-0.5,0-0.9-0.1-1.1-0.2v3.1h-1.7V31.9c0.7-0.4,1.7-0.5,2.6-0.5c2.3,0,3.6,1.4,3.6,3.9
		C287,37.7,285.6,39.2,283.6,39.2 M283.4,32.4c-0.3,0-0.6,0-0.9,0.2V38c0.2,0.1,0.5,0.1,0.8,0.1c1.4,0,2-1,2-2.9
		C285.2,33.4,284.7,32.4,283.4,32.4"/>
	<polygon class="st0" points="246.8,39.1 245.1,39.1 245.1,39 245.1,39.1 245.1,28 246.8,28 246.8,28 246.8,28 	"/>
	<polygon class="st0" points="95.6,50.6 94.8,50.6 94.8,50.6 94.8,50.6 94.8,17.8 95.6,17.8 95.6,17.8 95.6,17.8 	"/>
	<path class="st2" d="M66.6,29.2l-2.9-3.7c-0.1-0.2-0.3-0.3-0.5-0.3c-0.2,0-0.4,0.1-0.5,0.2l-3.4,4.3v6.7l3.4-4.3
		c0.1-0.2,0.3-0.3,0.5-0.3c0.2,0,0.4,0.1,0.5,0.3l2.9,3.7c0.1,0.1,0.3,0.2,0.5,0.2c0.2,0,0.4-0.1,0.5-0.2l2.9-3.7
		c0.1-0.2,0.3-0.3,0.5-0.3c0.2,0,0.4,0.1,0.5,0.3l3.4,4.3v-6.7l-3.4-4.3c-0.1-0.1-0.3-0.2-0.5-0.2c-0.2,0-0.4,0.1-0.5,0.3l-2.9,3.7
		c-0.1,0.1-0.3,0.2-0.5,0.2C66.9,29.4,66.7,29.3,66.6,29.2 M74.9,41.4H59.4l0,0l0,0v-4.9h15.5l0,0l0,0V41.4z"/>
</g>
</svg>
