<!-- Generator: Adobe Illustrator 22.1.0, SVG Export Plug-In  -->
<svg version="1.1"
	 xmlns="http://www.w3.org/2000/svg" xmlns:xlink="http://www.w3.org/1999/xlink" xmlns:a="http://ns.adobe.com/AdobeSVGViewerExtensions/3.0/"
	 x="0px" y="0px" width="1057px" height="416.4px" viewBox="0 0 1057 416.4" style="enable-background:new 0 0 1057 416.4;"
	 xml:space="preserve">
<style type="text/css">
	.st0{fill:#F2F2F2;}
	.st1{fill:none;stroke:#81295E;stroke-linecap:round;stroke-linejoin:round;stroke-miterlimit:10;}
	.st2{fill:#81295E;}
	.st3{fill:none;stroke:#D5A637;stroke-miterlimit:10;}
	.st4{fill:#D5A637;}
	.st5{fill:none;stroke:#BF583F;stroke-miterlimit:10;}
	.st6{fill:#BF583F;}
</style>
<defs>
</defs>
<polygon class="st0" points="551,233.9 551,183.9 507.7,158.9 464.4,183.9 464.4,233.9 507.7,258.9 "/>
<polygon class="st0" points="459.5,233.9 459.5,183.9 416.2,158.9 372.9,183.9 372.9,233.9 416.2,258.9 "/>
<polygon class="st0" points="86.6,391.4 86.6,341.4 43.3,316.4 0,341.4 0,391.4 43.3,416.4 "/>
<polygon class="st0" points="179.1,391.4 179.1,341.4 135.8,316.4 92.5,341.4 92.5,391.4 135.8,416.4 "/>
<polygon class="st0" points="227.6,313.4 227.6,263.4 184.3,238.4 140.9,263.4 140.9,313.4 184.3,338.4 "/>
<polygon class="st0" points="320,313.4 320,263.4 276.7,238.4 233.4,263.4 233.4,313.4 276.7,338.4 "/>
<polygon class="st0" points="413,313.4 413,263.4 369.7,238.4 326.4,263.4 326.4,313.4 369.7,338.4 "/>
<polygon class="st0" points="366.5,233.9 366.5,183.9 323.2,158.9 279.9,183.9 279.9,233.9 323.2,258.9 "/>
<polygon class="st0" points="643,233.9 643,183.9 599.7,158.9 556.4,183.9 556.4,233.9 599.7,258.9 "/>
<polygon class="st0" points="873.5,152.9 873.5,102.9 830.2,77.9 786.9,102.9 786.9,152.9 830.2,177.9 "/>
<polygon class="st0" points="920,233.9 920,183.9 876.7,158.9 833.4,183.9 833.4,233.9 876.7,258.9 "/>
<polygon class="st0" points="965,152.9 965,102.9 921.7,77.9 878.4,102.9 878.4,152.9 921.7,177.9 "/>
<polygon class="st0" points="1057,152.9 1057,102.9 1013.7,77.9 970.4,102.9 970.4,152.9 1013.7,177.9 "/>
<polygon class="st0" points="689.5,155.9 689.5,105.9 646.2,80.9 602.9,105.9 602.9,155.9 646.2,180.9 "/>
<polygon class="st0" points="736,78 736,28 692.7,3 649.4,28 649.4,78 692.7,103 "/>
<polygon class="st0" points="826,75 826,25 782.7,0 739.4,25 739.4,75 782.7,100 "/>
<line class="st1" x1="184" y1="233.9" x2="184" y2="170.9"/>
<circle class="st2" cx="184" cy="170.6" r="3.5"/>
<line class="st3" x1="322.7" y1="152.9" x2="322.7" y2="89.9"/>
<circle class="st4" cx="322.7" cy="89.6" r="3.5"/>
<line class="st5" x1="507" y1="153.7" x2="507" y2="90.7"/>
<circle class="st6" cx="507" cy="90.4" r="3.5"/>
</svg>
