<?xml version="1.0" encoding="utf-8"?>
<!-- Generator: Adobe Illustrator 22.1.0, SVG Export Plug-In . SVG Version: 6.00 Build 0)  -->
<svg version="1.1" id="dplanner-svg" xmlns="http://www.w3.org/2000/svg" xmlns:xlink="http://www.w3.org/1999/xlink" x="0px"
	 y="0px" viewBox="0 0 1057.1 416.5" style="enable-background:new 0 0 1057.1 416.5;" xml:space="preserve">
<style type="text/css">
	.st0{fill:#F2F2F2;}
	.st1{fill:none;stroke:#81295E;stroke-linecap:round;stroke-linejoin:round;stroke-miterlimit:10;}
	.st2{fill:#81295E;}
	.st3{fill:none;stroke:#D5A637;stroke-miterlimit:10;}
	.st4{fill:#D5A637;}
	.st5{fill:none;stroke:#BF583F;stroke-miterlimit:10;}
	.st6{fill:#BF583F;}
</style>
<polygon class="st0" points="551.1,234 551.1,184 507.8,159 464.5,184 464.5,234 507.8,259 "/>
<polygon class="st0" points="459.6,234 459.6,184 416.3,159 373,184 373,234 416.3,259 "/>
<polygon class="st0" points="86.6,391.5 86.6,341.5 43.3,316.5 0,341.5 0,391.5 43.3,416.5 "/>
<polygon class="st0" points="179.1,391.5 179.1,341.5 135.8,316.5 92.5,341.5 92.5,391.5 135.8,416.5 "/>
<polygon class="st0" points="227.6,313.5 227.6,263.5 184.3,238.5 141,263.5 141,313.5 184.3,338.5 "/>
<polygon class="st0" points="320.1,313.5 320.1,263.5 276.8,238.5 233.5,263.5 233.5,313.5 276.8,338.5 "/>
<polygon class="st0" points="413.1,313.5 413.1,263.5 369.8,238.5 326.5,263.5 326.5,313.5 369.8,338.5 "/>
<polygon class="st0" points="366.6,234 366.6,184 323.3,159 280,184 280,234 323.3,259 "/>
<polygon class="st0" points="643.1,234 643.1,184 599.8,159 556.5,184 556.5,234 599.8,259 "/>
<polygon class="st0" points="873.6,153 873.6,103 830.3,78 787,103 787,153 830.3,178 "/>
<polygon class="st0" points="920.1,234 920.1,184 876.8,159 833.5,184 833.5,234 876.8,259 "/>
<polygon class="st0" points="965.1,153 965.1,103 921.8,78 878.5,103 878.5,153 921.8,178 "/>
<polygon class="st0" points="1057.1,153 1057.1,103 1013.8,78 970.5,103 970.5,153 1013.8,178 "/>
<polygon class="st0" points="689.6,156 689.6,106 646.3,81 603,106 603,156 646.3,181 "/>
<polygon class="st0" points="736.1,78 736.1,28 692.8,3 649.5,28 649.5,78 692.8,103 "/>
<polygon class="st0" points="826.1,75 826.1,25 782.8,0 739.5,25 739.5,75 782.8,100 "/>
<line class="st1" x1="185" y1="233.8" x2="185" y2="200.8"/>
<circle class="st2" cx="185" cy="200.5" r="3.5"/>
<line class="st3" x1="323.7" y1="155.9" x2="323.7" y2="122.9"/>
<circle class="st4" cx="323.7" cy="122.6" r="3.5"/>
<line class="st5" x1="507.4" y1="155.9" x2="507.4" y2="122.9"/>
<circle class="st6" cx="507.4" cy="122.6" r="3.5"/>
</svg>
