<?xml version="1.0" encoding="utf-8"?>
<!-- Generator: Adobe Illustrator 22.1.0, SVG Export Plug-In . SVG Version: 6.00 Build 0)  -->
<svg version="1.1" id="Layer_1" xmlns="http://www.w3.org/2000/svg" xmlns:xlink="http://www.w3.org/1999/xlink" x="0px" y="0px"
	 viewBox="0 0 1400 800" style="enable-background:new 0 0 1400 800;" xml:space="preserve">
<style type="text/css">
	.st0{fill:#F2F2F2;}
	.st1{fill:#A51841;}
	.st2{fill:#81295E;}
	.st3{fill:#D5A637;}
	.st4{fill:#BF583F;}
	.st5{fill:#A7A8AC;}
	.st6{fill:#A32149;}
	.st7{fill:#D38441;}
	.st8{fill:none;stroke:#81295E;stroke-linecap:round;stroke-linejoin:round;stroke-miterlimit:10;}
	.st9{fill:none;stroke:#D5A637;stroke-miterlimit:10;}
	.st10{fill:none;stroke:#BF583F;stroke-miterlimit:10;}
</style>
<polygon class="st0" points="-2128,1325 -2128,1275 -2171.3,1250 -2214.6,1275 -2214.6,1325 -2171.3,1350 "/>
<polygon class="st0" points="-2219.5,1325 -2219.5,1275 -2262.8,1250 -2306.1,1275 -2306.1,1325 -2262.8,1350 "/>
<image style="overflow:visible;" width="2498" height="1396" xlink:href="../../../../../../Desktop/Screen Shot 2018-09-30 at 12.15.07.png"  transform="matrix(0.5 0 0 0.5 -1555 -485)">
</image>
<polygon class="st0" points="-1313,777.6 -1313,727.6 -1356.3,702.6 -1399.6,727.6 -1399.6,777.6 -1356.3,802.6 "/>
<polygon class="st1" points="-1321.7,772.5 -1321.7,732.6 -1356.3,712.6 -1390.9,732.6 -1390.9,772.5 -1356.3,792.5 "/>
<polygon class="st0" points="-1220.5,777.6 -1220.5,727.6 -1263.8,702.6 -1307.1,727.6 -1307.1,777.6 -1263.8,802.6 "/>
<polygon class="st0" points="-1172,699.6 -1172,649.6 -1215.3,624.6 -1258.6,649.6 -1258.6,699.6 -1215.3,724.6 "/>
<polygon class="st0" points="-1079.5,699.6 -1079.5,649.6 -1122.8,624.6 -1166.1,649.6 -1166.1,699.6 -1122.8,724.6 "/>
<polygon class="st0" points="-986.5,699.6 -986.5,649.6 -1029.8,624.6 -1073.1,649.6 -1073.1,699.6 -1029.8,724.6 "/>
<polygon class="st0" points="-1033,620.1 -1033,570.1 -1076.3,545.1 -1119.6,570.1 -1119.6,620.1 -1076.3,645.1 "/>
<polygon class="st0" points="-940,620.1 -940,570.1 -983.3,545.1 -1026.6,570.1 -1026.6,620.1 -983.3,645.1 "/>
<polygon class="st0" points="-848.5,620.1 -848.5,570.1 -891.8,545.1 -935.1,570.1 -935.1,620.1 -891.8,645.1 "/>
<polygon class="st0" points="-756.5,620.1 -756.5,570.1 -799.8,545.1 -843.1,570.1 -843.1,620.1 -799.8,645.1 "/>
<polygon class="st0" points="-526,539.1 -526,489.1 -569.3,464.1 -612.6,489.1 -612.6,539.1 -569.3,564.1 "/>
<polygon class="st0" points="-479.5,620.1 -479.5,570.1 -522.8,545.1 -566.1,570.1 -566.1,620.1 -522.8,645.1 "/>
<polygon class="st0" points="-434.5,539.1 -434.5,489.1 -477.9,464.1 -521.2,489.1 -521.2,539.1 -477.9,564.1 "/>
<polygon class="st0" points="-342.6,539.1 -342.6,489.1 -385.9,464.1 -429.2,489.1 -429.2,539.1 -385.9,564.1 "/>
<polygon class="st0" points="-710,542.1 -710,492.1 -753.3,467.1 -796.6,492.1 -796.6,542.1 -753.3,567.1 "/>
<polygon class="st0" points="-663.5,464.1 -663.5,414.1 -706.8,389.1 -750.1,414.1 -750.1,464.1 -706.8,489.1 "/>
<polygon class="st0" points="-573.5,461.1 -573.5,411.1 -616.8,386.1 -660.1,411.1 -660.1,461.1 -616.8,486.1 "/>
<polygon class="st2" points="-1180.2,695.1 -1180.2,655.1 -1214.8,635.1 -1249.4,655.1 -1249.4,695.1 -1214.8,715 "/>
<polygon class="st2" points="-2228.2,1320.5 -2228.2,1280.6 -2262.8,1260.6 -2297.4,1280.6 -2297.4,1320.5 -2262.8,1340.5 "/>
<polygon class="st3" points="-2136.7,1320.5 -2136.7,1280.6 -2171.3,1260.6 -2205.9,1280.6 -2205.9,1320.5 -2171.3,1340.5 "/>
<polygon class="st3" points="-995.7,695.1 -995.7,655.1 -1030.3,635.1 -1064.9,655.1 -1064.9,695.1 -1030.3,715 "/>
<polygon class="st4" points="-857.7,616.1 -857.7,576.1 -892.3,556.1 -926.9,576.1 -926.9,616.1 -892.3,636 "/>
<polygon class="st5" points="-764.7,616.1 -764.7,576.1 -799.3,556.1 -833.9,576.1 -833.9,616.1 -799.3,636 "/>
<polygon class="st6" points="-672.8,459.9 -672.8,420 -707.4,400 -742,420 -742,459.9 -707.4,479.9 "/>
<polygon class="st7" points="-488.9,615.2 -488.9,575.3 -523.5,555.3 -558.1,575.3 -558.1,615.2 -523.5,635.2 "/>
<polygon class="st3" points="-350.9,534.7 -350.9,494.8 -385.5,474.8 -420.1,494.8 -420.1,534.7 -385.5,554.7 "/>
<polygon class="st0" points="-2461.9,777.6 -2461.9,727.6 -2505.2,702.6 -2548.6,727.6 -2548.6,777.6 -2505.2,802.6 "/>
<polygon class="st0" points="-2369.5,777.6 -2369.5,727.6 -2412.8,702.6 -2456.1,727.6 -2456.1,777.6 -2412.8,802.6 "/>
<polygon class="st0" points="-2321,699.6 -2321,649.6 -2364.3,624.6 -2407.6,649.6 -2407.6,699.6 -2364.3,724.6 "/>
<polygon class="st0" points="-2228.5,699.6 -2228.5,649.6 -2271.8,624.6 -2315.1,649.6 -2315.1,699.6 -2271.8,724.6 "/>
<polygon class="st0" points="-2135.5,699.6 -2135.5,649.6 -2178.8,624.6 -2222.1,649.6 -2222.1,699.6 -2178.8,724.6 "/>
<polygon class="st0" points="-2182,620.1 -2182,570.1 -2225.3,545.1 -2268.6,570.1 -2268.6,620.1 -2225.3,645.1 "/>
<polygon class="st0" points="-2089,620.1 -2089,570.1 -2132.3,545.1 -2175.6,570.1 -2175.6,620.1 -2132.3,645.1 "/>
<polygon class="st0" points="-1997.5,620.1 -1997.5,570.1 -2040.8,545.1 -2084.1,570.1 -2084.1,620.1 -2040.8,645.1 "/>
<polygon class="st0" points="-1905.5,620.1 -1905.5,570.1 -1948.8,545.1 -1992.1,570.1 -1992.1,620.1 -1948.8,645.1 "/>
<polygon class="st0" points="-1675,539.1 -1675,489.1 -1718.3,464.1 -1761.6,489.1 -1761.6,539.1 -1718.3,564.1 "/>
<polygon class="st0" points="-1628.5,620.1 -1628.5,570.1 -1671.8,545.1 -1715.1,570.1 -1715.1,620.1 -1671.8,645.1 "/>
<polygon class="st0" points="-1583.5,539.1 -1583.5,489.1 -1626.8,464.1 -1670.1,489.1 -1670.1,539.1 -1626.8,564.1 "/>
<polygon class="st0" points="-1491.5,539.1 -1491.5,489.1 -1534.8,464.1 -1578.1,489.1 -1578.1,539.1 -1534.8,564.1 "/>
<polygon class="st0" points="-1859,542.1 -1859,492.1 -1902.3,467.1 -1945.6,492.1 -1945.6,542.1 -1902.3,567.1 "/>
<polygon class="st0" points="-1812.5,464.1 -1812.5,414.1 -1855.8,389.1 -1899.1,414.1 -1899.1,464.1 -1855.8,489.1 "/>
<polygon class="st0" points="-1722.5,461.1 -1722.5,411.1 -1765.8,386.1 -1809.1,411.1 -1809.1,461.1 -1765.8,486.1 "/>
<polygon class="st0" points="-2592.4,1482.5 -2592.4,1432.5 -2635.7,1407.5 -2679,1432.5 -2679,1482.5 -2635.7,1507.5 "/>
<polygon class="st0" points="-2499.9,1482.5 -2499.9,1432.5 -2543.2,1407.5 -2586.5,1432.5 -2586.5,1482.5 -2543.2,1507.5 "/>
<polygon class="st0" points="-2451.4,1404.5 -2451.4,1354.5 -2494.7,1329.5 -2538.1,1354.5 -2538.1,1404.5 -2494.7,1429.5 "/>
<polygon class="st0" points="-2359,1404.5 -2359,1354.5 -2402.3,1329.5 -2445.6,1354.5 -2445.6,1404.5 -2402.3,1429.5 "/>
<polygon class="st0" points="-2266,1404.5 -2266,1354.5 -2309.3,1329.5 -2352.6,1354.5 -2352.6,1404.5 -2309.3,1429.5 "/>
<polygon class="st0" points="-2312.5,1325 -2312.5,1275 -2355.8,1250 -2399.1,1275 -2399.1,1325 -2355.8,1350 "/>
<polygon class="st0" points="-2036,1325 -2036,1275 -2079.3,1250 -2122.6,1275 -2122.6,1325 -2079.3,1350 "/>
<polygon class="st0" points="-1805.5,1244 -1805.5,1194 -1848.8,1169 -1892.1,1194 -1892.1,1244 -1848.8,1269 "/>
<polygon class="st0" points="-1759,1325 -1759,1275 -1802.3,1250 -1845.6,1275 -1845.6,1325 -1802.3,1350 "/>
<polygon class="st0" points="-1714,1244 -1714,1194 -1757.3,1169 -1800.6,1194 -1800.6,1244 -1757.3,1269 "/>
<polygon class="st0" points="-1622,1244 -1622,1194 -1665.3,1169 -1708.6,1194 -1708.6,1244 -1665.3,1269 "/>
<polygon class="st0" points="-1989.5,1247 -1989.5,1197 -2032.8,1172 -2076.1,1197 -2076.1,1247 -2032.8,1272 "/>
<polygon class="st0" points="-1943,1169.1 -1943,1119.1 -1986.3,1094.1 -2029.6,1119.1 -2029.6,1169.1 -1986.3,1194.1 "/>
<polygon class="st0" points="-1853,1166.1 -1853,1116.1 -1896.3,1091.1 -1939.6,1116.1 -1939.6,1166.1 -1896.3,1191.1 "/>
<polygon class="st4" points="-2045.7,1320.5 -2045.7,1280.6 -2080.3,1260.6 -2114.9,1280.6 -2114.9,1320.5 -2080.3,1340.5 "/>
<line class="st8" x1="-2263" y1="1247" x2="-2263" y2="1184"/>
<circle class="st2" cx="-2263" cy="1183.7" r="3.5"/>
<line class="st9" x1="-2171.3" y1="1247" x2="-2171.3" y2="1184"/>
<circle class="st3" cx="-2171.3" cy="1183.7" r="3.5"/>
<line class="st10" x1="-2079.7" y1="1247" x2="-2079.7" y2="1184"/>
<circle class="st4" cx="-2079.7" cy="1183.7" r="3.5"/>
</svg>
