<svg xmlns="http://www.w3.org/2000/svg" data-name="Layer 1" viewBox="0 0 100 125" x="0px" y="0px"><title>Artboard 4</title><path d="M12.39,80.9A44.32,44.32,0,0,1,2,51.46,14.74,14.74,0,0,1,10.8,38.31l1.08-.47a5.4,5.4,0,0,1,6.47,1.67L25.63,49a5,5,0,0,1-.44,6.6l-4.91,4.91a22.3,22.3,0,0,0,4.94,10.78l.27.32a23.49,23.49,0,0,0,2.88,2.88l.32.27a22.32,22.32,0,0,0,10.78,4.94l4.91-4.91a5,5,0,0,1,6.6-.44l9.51,7.28a5.4,5.4,0,0,1,1.67,6.47l-.47,1.08A14.74,14.74,0,0,1,48.54,98h-.92A44.32,44.32,0,0,1,19.1,87.61l-.57-.47a46.42,46.42,0,0,1-5.67-5.67ZM88.54,11.46A32.32,32.32,0,0,1,49.16,62.09l-10.6,3.08a3,3,0,0,1-3.72-3.72l3.08-10.6A32.32,32.32,0,0,1,88.54,11.46ZM55.83,34.31a4.12,4.12,0,1,0-4.11,4.12A4.12,4.12,0,0,0,55.83,34.31Zm14,0a4.12,4.12,0,1,0-4.12,4.12A4.12,4.12,0,0,0,69.8,34.31Zm14,0a4.11,4.11,0,1,0-4.11,4.12A4.12,4.12,0,0,0,83.77,34.31Z"/><text x="0" y="115" fill="#000000" font-size="5px" font-weight="bold" font-family="'Helvetica Neue', Helvetica, Arial-Unicode, Arial, Sans-serif">Created by Gregor Cresnar</text><text x="0" y="120" fill="#000000" font-size="5px" font-weight="bold" font-family="'Helvetica Neue', Helvetica, Arial-Unicode, Arial, Sans-serif">from the Noun Project</text></svg>