<svg xmlns="http://www.w3.org/2000/svg" xmlns:xlink="http://www.w3.org/1999/xlink" version="1.1" x="0px" y="0px" viewBox="0 0 47 58.75" enable-background="new 0 0 47 47" xml:space="preserve"><path d="M3.395,19.722c20.249,0,31.061-6.135,36.542-11.217v2.435c0,0.829,0.672,1.5,1.5,1.5s1.5-0.671,1.5-1.5V4.722  c0-0.027-0.006-0.051-0.008-0.078c-0.003-0.052-0.008-0.103-0.016-0.153c-0.008-0.048-0.018-0.096-0.029-0.142  c-0.012-0.047-0.025-0.092-0.043-0.138c-0.017-0.046-0.033-0.091-0.056-0.134c-0.021-0.043-0.044-0.085-0.069-0.127  s-0.052-0.082-0.08-0.121c-0.029-0.039-0.06-0.075-0.093-0.111c-0.034-0.039-0.071-0.074-0.11-0.109  c-0.019-0.017-0.033-0.038-0.055-0.054c-0.018-0.013-0.035-0.021-0.052-0.034c-0.042-0.031-0.087-0.06-0.132-0.086  c-0.041-0.024-0.082-0.047-0.123-0.066c-0.045-0.021-0.092-0.038-0.139-0.055c-0.047-0.016-0.093-0.032-0.141-0.043  c-0.046-0.011-0.092-0.019-0.141-0.025c-0.049-0.01-0.101-0.016-0.152-0.017c-0.021-0.001-0.041-0.006-0.063-0.006h-6.813  c-0.828,0-1.5,0.671-1.5,1.5s0.672,1.5,1.5,1.5h3.37c-5.023,4.71-15.153,10.5-34.601,10.5c-0.829,0-1.5,0.671-1.5,1.5  S2.565,19.722,3.395,19.722z"/><path d="M2.973,13.462c0.185,0.056,0.378,0.102,0.575,0.139c0.195,0.037,0.407,0.064,0.638,0.083  c0.048,0.004,0.097,0.007,0.148,0.01v1.138l0.586,0.132c0.098,0.022,0.195,0.038,0.299,0.05c0.1,0.011,0.198,0.016,0.297,0.016  c0.09,0,0.185-0.005,0.289-0.017c0.107-0.012,0.207-0.03,0.302-0.054l0.567-0.143v-1.387c0.585-0.198,1.069-0.506,1.443-0.919  c0.516-0.568,0.776-1.297,0.776-2.166c0-0.433-0.063-0.818-0.188-1.144C8.58,8.872,8.4,8.58,8.17,8.332  C7.953,8.1,7.691,7.897,7.389,7.73c-0.254-0.14-0.538-0.276-0.85-0.405L6.081,7.131C5.839,7.03,5.623,6.937,5.434,6.852  C5.291,6.788,5.173,6.719,5.079,6.647c-0.052-0.04-0.088-0.08-0.108-0.119c-0.008-0.015-0.025-0.06-0.025-0.156  c0-0.211,0.062-0.254,0.091-0.275c0.08-0.056,0.281-0.151,0.731-0.151c0.313,0,0.587,0.025,0.816,0.074  c0.24,0.051,0.453,0.111,0.639,0.18L7.9,6.45l0.276-0.668C8.339,5.391,8.444,4.99,8.492,4.588l0.069-0.583L8.013,3.798  C7.736,3.693,7.41,3.608,7.041,3.544C6.919,3.523,6.797,3.505,6.674,3.489V2.475L6.106,2.333C5.736,2.239,5.26,2.236,4.89,2.335  L4.334,2.484v1.133C3.767,3.783,3.299,4.059,2.938,4.439C2.431,4.974,2.174,5.656,2.174,6.467c0,0.397,0.055,0.752,0.163,1.055  c0.112,0.315,0.277,0.596,0.491,0.833c0.197,0.218,0.431,0.409,0.693,0.566c0.232,0.139,0.49,0.266,0.758,0.374l1.294,0.552  c0.144,0.063,0.259,0.131,0.341,0.197c0.047,0.039,0.078,0.079,0.099,0.124c0.011,0.025,0.037,0.101,0.037,0.259  c0,0.274-0.096,0.388-0.199,0.471c-0.103,0.082-0.367,0.219-0.995,0.219c-0.349,0-0.642-0.027-0.872-0.082  c-0.268-0.063-0.527-0.136-0.78-0.218l-0.679-0.22l-0.254,0.667c-0.071,0.187-0.136,0.381-0.193,0.58  c-0.065,0.228-0.108,0.453-0.129,0.675L1.895,13.11l0.563,0.188C2.633,13.357,2.804,13.411,2.973,13.462z"/><path d="M13.019,27.564H3.395c-0.829,0-1.5,0.672-1.5,1.5v14.174c0,0.828,0.671,1.5,1.5,1.5h9.624c0.828,0,1.5-0.672,1.5-1.5V29.064  C14.519,28.236,13.847,27.564,13.019,27.564z"/><path d="M43.605,13.393H42.4c-0.178,0-0.344,0.036-0.502,0.092c-0.006,0.002-0.012,0.003-0.018,0.005  c-0.206,0.076-0.395,0.192-0.546,0.346c-2.187,2.029-4.88,3.836-8.015,5.367c-0.014,0.007-0.024,0.017-0.038,0.024  c-0.067,0.036-0.134,0.075-0.194,0.121c-0.023,0.018-0.046,0.038-0.068,0.057c-0.051,0.042-0.1,0.086-0.144,0.134  c-0.022,0.026-0.045,0.054-0.065,0.081c-0.039,0.048-0.074,0.096-0.105,0.148c-0.02,0.031-0.036,0.063-0.053,0.097  c-0.027,0.052-0.053,0.104-0.073,0.16c-0.015,0.039-0.024,0.078-0.036,0.117c-0.016,0.052-0.027,0.103-0.037,0.157  c-0.009,0.05-0.012,0.101-0.016,0.151c-0.002,0.033-0.01,0.064-0.01,0.098v22.69c0,0.828,0.672,1.5,1.5,1.5h9.625  c0.828,0,1.5-0.672,1.5-1.5V14.893C45.105,14.064,44.434,13.393,43.605,13.393z"/><path d="M29.788,22.633c-0.009-0.057-0.022-0.112-0.038-0.167c-0.007-0.025-0.009-0.05-0.018-0.075  c-0.006-0.015-0.015-0.027-0.02-0.042c-0.021-0.057-0.048-0.11-0.074-0.164c-0.02-0.036-0.037-0.071-0.058-0.105  c-0.03-0.047-0.063-0.091-0.099-0.135c-0.025-0.033-0.051-0.066-0.08-0.097c-0.037-0.04-0.078-0.075-0.12-0.111  c-0.03-0.026-0.062-0.054-0.095-0.077c-0.045-0.033-0.095-0.062-0.145-0.089c-0.034-0.019-0.066-0.039-0.102-0.055  c-0.053-0.024-0.104-0.042-0.159-0.061c-0.038-0.013-0.077-0.026-0.116-0.036c-0.053-0.013-0.104-0.02-0.157-0.027  c-0.047-0.006-0.093-0.012-0.141-0.014c-0.021-0.001-0.038-0.006-0.058-0.006c-0.035,0-0.065,0.008-0.1,0.01  c-0.046,0.003-0.092,0.007-0.138,0.014c-0.06,0.009-0.116,0.023-0.173,0.04c-0.024,0.007-0.049,0.009-0.073,0.017  c-2.886,0.98-6.048,1.772-9.399,2.354c-0.005,0.001-0.009,0.003-0.013,0.004c-0.075,0.014-0.146,0.036-0.217,0.061  c-0.024,0.008-0.05,0.013-0.073,0.022c-0.064,0.026-0.125,0.06-0.185,0.095c-0.025,0.015-0.053,0.025-0.076,0.041  c-0.055,0.035-0.103,0.078-0.152,0.121c-0.023,0.021-0.051,0.039-0.073,0.061c-0.045,0.044-0.084,0.094-0.123,0.145  c-0.021,0.024-0.044,0.049-0.063,0.076c-0.034,0.049-0.061,0.103-0.089,0.154c-0.018,0.033-0.038,0.063-0.053,0.098  c-0.021,0.047-0.034,0.098-0.05,0.146c-0.015,0.045-0.031,0.088-0.041,0.134c-0.01,0.042-0.012,0.086-0.018,0.13  c-0.007,0.057-0.016,0.112-0.017,0.17c0,0.008-0.002,0.014-0.002,0.021V43.24c0,0.828,0.671,1.5,1.5,1.5h9.625  c0.828,0,1.5-0.672,1.5-1.5V22.872c0-0.031-0.009-0.06-0.01-0.091C29.801,22.732,29.797,22.683,29.788,22.633z"/><text x="0" y="62" fill="#000000" font-size="5px" font-weight="bold" font-family="'Helvetica Neue', Helvetica, Arial-Unicode, Arial, Sans-serif">Created by Adnen Kadri</text><text x="0" y="67" fill="#000000" font-size="5px" font-weight="bold" font-family="'Helvetica Neue', Helvetica, Arial-Unicode, Arial, Sans-serif">from the Noun Project</text></svg>