<svg xmlns="http://www.w3.org/2000/svg" xmlns:xlink="http://www.w3.org/1999/xlink" version="1.1" x="0px" y="0px" viewBox="0 0 98 122.5" style="enable-background:new 0 0 98 98;" xml:space="preserve"><g><path d="M12.1,57.3v19.1c0,3.7,3,6.6,6.6,6.6V83h1.2c3.1-0.6,5.4-3.3,5.4-6.5V50.7h-6.6C15,50.7,12.1,53.7,12.1,57.3z"/><path d="M31,14.9v61.5c0,2.4-0.7,4.6-1.9,6.5H77c5,0,9-4.1,9-9v-59H31z M43.6,30.7h21.5c1.6,0,2.9,1.3,2.9,2.9   c0,1.6-1.3,2.9-2.9,2.9H43.6c-1.6,0-2.9-1.3-2.9-2.9C40.8,32,42,30.7,43.6,30.7z M65.1,68.6H43.6c-1.6,0-2.9-1.3-2.9-2.9   s1.3-2.9,2.9-2.9h21.5c1.6,0,2.9,1.3,2.9,2.9S66.7,68.6,65.1,68.6z M73.4,53H43.6c-1.6,0-2.9-1.3-2.9-2.9c0-1.6,1.3-2.9,2.9-2.9   h29.7c1.6,0,2.9,1.3,2.9,2.9C76.2,51.7,74.9,53,73.4,53z"/></g><text x="0" y="113" fill="#000000" font-size="5px" font-weight="bold" font-family="'Helvetica Neue', Helvetica, Arial-Unicode, Arial, Sans-serif">Created by James</text><text x="0" y="118" fill="#000000" font-size="5px" font-weight="bold" font-family="'Helvetica Neue', Helvetica, Arial-Unicode, Arial, Sans-serif">from the Noun Project</text></svg>