<svg xmlns="http://www.w3.org/2000/svg" xmlns:xlink="http://www.w3.org/1999/xlink" version="1.1" x="0px" y="0px" viewBox="0 0 95 118.75" enable-background="new 0 0 95 95" xml:space="preserve"><g><path d="M75.334,11.23H19.666c-5.523,0-10,4.477-10,10v42c0,5.521,4.477,10,10,10h55.668c5.523,0,10-4.479,10-10v-42   C85.334,15.707,80.857,11.23,75.334,11.23z M47.5,63.689c-11.852,0-21.459-9.607-21.459-21.459S35.648,20.771,47.5,20.771   s21.459,9.607,21.459,21.459S59.352,63.689,47.5,63.689z"/><path d="M58.453,40.66l-16.432-9.488c-1.498-0.863-2.723-0.156-2.723,1.57v18.975c0,1.729,1.225,2.436,2.723,1.57l16.432-9.486   C59.949,42.936,59.949,41.523,58.453,40.66z"/><circle cx="25.816" cy="79.77" r="4"/><path d="M83.105,77.539H30.84c0.305,0.684,0.477,1.436,0.477,2.23c0,0.793-0.172,1.547-0.477,2.229h52.266   c1.23,0,2.229-0.998,2.229-2.229C85.334,78.537,84.336,77.539,83.105,77.539z"/><path d="M11.895,77.539c-1.23,0-2.229,0.998-2.229,2.23c0,1.23,0.998,2.229,2.229,2.229h8.898   c-0.303-0.682-0.477-1.436-0.477-2.229c0-0.795,0.174-1.547,0.477-2.23H11.895z"/></g><text x="0" y="110" fill="#000000" font-size="5px" font-weight="bold" font-family="'Helvetica Neue', Helvetica, Arial-Unicode, Arial, Sans-serif">Created by Guilherme Furtado</text><text x="0" y="115" fill="#000000" font-size="5px" font-weight="bold" font-family="'Helvetica Neue', Helvetica, Arial-Unicode, Arial, Sans-serif">from the Noun Project</text></svg>