<svg id="Layer_1" xmlns="http://www.w3.org/2000/svg" xmlns:xlink="http://www.w3.org/1999/xlink" viewBox="0 0 1280 720">
  <style>
    .st0{fill:none}.st1{fill:#003c64}.st2{fill:#fdc828}.st5{fill:#ca4642}.st8{fill:#e6e6e6}
  </style>
  <path class="st0" d="M41.5 71.6h1207.2v606.9H41.5z"/>
  <path class="st1" d="M1004.5 444.7c-61.1 0-110.6-49.5-110.6-110.6s49.5-110.6 110.6-110.6 110.6 49.5 110.6 110.6-49.5 110.6-110.6 110.6m0-281.8c-94 0-170.2 76.2-170.2 170.2s76.2 170.2 170.2 170.2 170.2-76.2 170.2-170.2-76.2-170.2-170.2-170.2"/>
  <path class="st0" d="M41.5 71.6h1207.2v606.9H41.5z"/>
  <path class="st1" d="M1004.5 402.7c-37.9 0-68.6-30.7-68.6-68.6s30.7-68.5 68.6-68.5c37.9 0 68.6 30.7 68.6 68.5s-30.7 68.6-68.6 68.6m0-162.9c-52.1 0-94.3 42.2-94.3 94.3s42.2 94.3 94.3 94.3 94.4-42.2 94.4-94.3c0-52-42.3-94.3-94.4-94.3"/>
  <path class="st0" d="M41.5 71.6h1207.2v606.9H41.5z"/>
  <path class="st1" d="M1220.4 325.4c-.1-7.5-.7-15-1.7-22.4l26.6-10.4c-1.9-11.2-4.5-22.2-7.8-32.8L1209 262c-2.4-7.1-5.2-13.9-8.3-20.7l22.2-17.6c-5.1-10.2-10.9-19.9-17.3-29.2l-26.4 10.4c-4.3-5.9-8.9-11.6-13.8-17.1l15.9-23.2c-7.9-8.2-16.3-15.9-25.2-23l-21.9 17.6c-5.8-4.3-11.8-8.4-18-12.2l8.3-26.7c-9.9-5.6-20.2-10.5-30.9-14.7l-15.7 23.2c-6.7-2.4-13.6-4.5-20.6-6.3l.1-27.9c-11.1-2.4-22.4-4.2-34-5l-8.1 26.7c-3.6-.2-7.1-.3-10.7-.3-3.6 0-7.2.1-10.7.3l-8.1-26.7c-11.6.9-22.9 2.6-34 5l.1 27.9c-7 1.8-13.9 3.9-20.6 6.3l-15.7-23.2c-10.7 4.2-21 9.1-30.9 14.7L893 147c-6.2 3.8-12.2 7.8-18 12.2l-21.9-17.6c-8.9 7.1-17.4 14.8-25.2 23l15.9 23.2c-4.9 5.4-9.5 11.1-13.8 17.1l-26.4-10.4c-6.4 9.3-12.2 19-17.3 29.2l22.2 17.6c-3.1 6.7-5.9 13.6-8.3 20.7l-28.5-2.2c-3.3 10.6-6 21.6-7.8 32.8l26.6 10.4c-1 7.4-1.6 14.9-1.9 22.5l-28.1 6.3v1.3c0 10.9.7 21.6 2.1 32.1l28.7 2.1c1.2 7.6 2.9 15.1 4.9 22.4L771 404.1c3.2 10.7 7.2 21 11.8 31l28.3-6.6c3.5 7 7.3 13.7 11.5 20.2l-20 21.4c6.2 9.1 13 17.8 20.4 26l25.3-14.7c5.4 5.7 11.1 11.1 17.2 16.1L852.6 524c8.6 6.8 17.6 13.1 27 18.7l19.9-21.6c6.9 3.9 14 7.4 21.4 10.5l-4.5 29.1c10.1 3.9 20.5 7.2 31.2 9.7l12.7-26.6c7.7 1.6 15.6 2.8 23.6 3.6l4.3 29.2c5.4.4 10.9.6 16.3.6 5.5 0 10.9-.2 16.3-.6l4.3-29.2c8-.8 15.9-1.9 23.6-3.6l12.7 26.6c10.7-2.6 21.1-5.8 31.2-9.7l-4.5-29.1c7.3-3.1 14.5-6.6 21.4-10.5l19.9 21.6c9.4-5.6 18.4-11.9 27-18.7l-12.9-26.5c6-5.1 11.7-10.5 17.2-16.1l25.3 14.7c7.4-8.2 14.2-16.9 20.4-26l-20-21.4c4.2-6.5 8-13.3 11.5-20.2l28.3 6.6c4.6-10 8.6-20.4 11.8-31.1l-25.2-14.4c2-7.3 3.7-14.8 4.9-22.4l28.7-2.1c1.4-10.5 2.1-21.2 2.1-32.1v-1.3l-28.1-6.3zm-215.9 191c-101.2 0-183.3-82.1-183.3-183.3s82-183.3 183.3-183.3c101.2 0 183.3 82.1 183.3 183.3s-82.1 183.3-183.3 183.3z"/>
  <path class="st2" d="M1004.6 175l5.2 15.7h16.4l-13.2 9.8 4.9 15.6-13.3-9.6-13.3 9.6 5-15.7-13.3-9.7 16.5-.1zM1073.6 192.8l5.2 15.7 16.4.1-13.3 9.7 5 15.6-13.3-9.6-13.4 9.6 5.1-15.7-13.3-9.7 16.5-.1zM1123.6 243.2l5.1 15.6 16.5.1-13.3 9.7 5 15.6-13.3-9.6-13.4 9.6 5-15.6-13.2-9.8h16.4zM1142.2 312l5.1 15.6 16.5.1-13.3 9.7 5 15.7-13.3-9.6-13.4 9.6 5-15.7-13.2-9.7 16.4-.1zM1123.6 381.1l5.1 15.6 16.5.1-13.3 9.7 5 15.7-13.3-9.7-13.4 9.6 5-15.6-13.2-9.8h16.4zM1073.5 431.1l5.2 15.7 16.4.1-13.3 9.7 5 15.6-13.3-9.6-13.4 9.6 5.1-15.7-13.3-9.7h16.5zM1004.6 450.1l5.2 15.6 16.4.1-13.2 9.7 4.9 15.7-13.3-9.6-13.3 9.6 5-15.7-13.3-9.7 16.5-.1zM935.5 431.1l5.1 15.7 16.5.1-13.3 9.7 5 15.6-13.3-9.6-13.4 9.6 5-15.7-13.2-9.7h16.4zM885.6 381.1l5.1 15.6 16.4.1-13.2 9.7 5 15.7-13.4-9.7-13.3 9.6 5-15.6-13.2-9.8h16.4zM866.9 312l5.1 15.6 16.4.1-13.2 9.7 5 15.7-13.4-9.6-13.3 9.6 5-15.7-13.3-9.7 16.5-.1zM885.6 243.9l5.1 15.6 16.4.1-13.2 9.8 5 15.6-13.4-9.6-13.3 9.6 5-15.7-13.2-9.7 16.4-.1zM935.5 192.8l5.1 15.7 16.5.1-13.3 9.7 5 15.6-13.3-9.6-13.4 9.6 5-15.7-13.2-9.7 16.4-.1z"/>
  <defs>
    <path id="SVGID_1_" d="M41.5 71.6h1207.2v606.9H41.5z"/>
  </defs>
  <clipPath id="SVGID_2_">
    <use xlink:href="#SVGID_1_" overflow="visible"/>
  </clipPath>
  <path d="M546.6 224.5c-19.4 0-35.1 15.7-35.1 35.1s15.7 35.1 35.1 35.1 35.1-15.7 35.1-35.1c0-19.4-15.8-35.1-35.1-35.1m0 70.9c-19.8 0-35.9-16.1-35.9-35.9s16.1-35.9 35.9-35.9 35.9 16.1 35.9 35.9-16.1 35.9-35.9 35.9m-12.2 149.8c4.2.3 8.3.4 12.2.4s8-.1 12.2-.4l3.3-22.4h.3c6.1-.6 12.2-1.5 18.1-2.7l.3-.1.1.3 9.6 20.1c7.9-1.9 15.7-4.4 23.3-7.3l-3.4-22.3.3-.1c5.5-2.3 11-5 16.4-8l.3-.2 15.3 16.6c7-4.2 13.8-8.9 20.1-14l-9.9-20.3.2-.2c4.5-3.8 8.9-8 13.1-12.4l.2-.2 19.4 11.3c5.5-6.1 10.6-12.6 15.2-19.4l-15.3-16.4.2-.3c3.2-5 6.2-10.2 8.8-15.5l.1-.3 21.7 5c3.4-7.5 6.4-15.3 8.8-23.2L706 302.3l.1-.3c1.6-5.7 2.8-11.4 3.8-17.2v-.3l22-1.6c1-8 1.6-16.2 1.6-24.2v-.7l-21.6-4.8v-.3c-.2-5.8-.7-11.6-1.4-17.2v-.3l20.4-7.9c-1.4-8.3-3.4-16.5-5.8-24.5l-21.9 1.7-.1-.3c-1.8-5.3-4-10.6-6.4-15.8l-.1-.3 17-13.5c-3.8-7.5-8.1-14.8-12.9-21.8l-20.2 8-.2-.2c-3.3-4.6-6.9-9-10.6-13.1l-.2-.2 12.2-17.8c-5.8-6.1-12.2-11.9-18.8-17.2L646.1 126l-.2-.2c-4.4-3.3-9.1-6.4-13.8-9.3l-.3-.2 6.4-20.5c-7.4-4.2-15.2-7.9-23.1-11l-12 17.8-.3-.1c-5.2-1.9-10.5-3.5-15.8-4.8l-.3-.1.1-21.4c-8.4-1.8-16.9-3.1-25.4-3.8l-6.2 20.5h-.3c-2.8-.1-5.6-.2-8.2-.2-2.6 0-5.4.1-8.2.2h-.3L532 72.4c-8.5.7-17 1.9-25.4 3.8l.1 21.4-.3.1c-5.3 1.3-10.6 3-15.8 4.8l-.3.1-12-17.8c-7.9 3.1-15.7 6.8-23.1 11l6.4 20.5-.3.2c-4.7 2.9-9.4 6-13.8 9.3l-.2.2-16.8-13.5c-6.7 5.3-13 11.1-18.8 17.2l12.2 17.8-.2.2c-3.7 4.1-7.2 8.5-10.6 13.1l-.2.2-20.2-8c-4.8 7-9.1 14.3-12.9 21.8l17 13.5-.1.3c-2.4 5.1-4.5 10.5-6.4 15.8l-.1.3-21.8-1.7c-2.5 7.9-4.4 16.2-5.9 24.5l20.4 7.9v.3c-.8 5.6-1.3 11.4-1.4 17.2v.3l-21.6 4.8v.7c0 8.1.5 16.2 1.6 24.2l22 1.6.1.3c.9 5.7 2.2 11.5 3.8 17.2l.1.3-19.3 11.1c2.4 7.9 5.4 15.7 8.8 23.2l21.7-5 .1.3c2.6 5.3 5.6 10.5 8.8 15.5l.2.3-15.6 16.3c4.6 6.7 9.7 13.3 15.2 19.4l19.4-11.3.2.2c4.2 4.4 8.6 8.6 13.1 12.4l.2.2-9.9 20.3c6.4 5.1 13.2 9.8 20.1 14l15.3-16.6.3.2c5.4 3 10.9 5.7 16.4 8l.3.1-3.4 22.3c7.6 2.9 15.4 5.4 23.3 7.3l9.7-20.4.3.1c5.9 1.2 12 2.1 18.1 2.7h.3l3.3 22.3zm12.2 1.2c-4 0-8.3-.1-12.6-.4h-.3l-3.3-22.4c-5.9-.6-11.8-1.5-17.6-2.6l-9.8 20.4-.3-.1c-8.1-1.9-16.2-4.5-24-7.5l-.3-.1 3.4-22.4c-5.3-2.2-10.6-4.9-15.9-7.8l-15.3 16.6-.3-.2c-7.2-4.3-14.2-9.1-20.7-14.4l-.2-.2 9.9-20.3c-4.4-3.7-8.7-7.7-12.7-12l-19.4 11.3-.2-.2c-5.7-6.3-10.9-13-15.7-20l-.2-.3 15.3-16.4c-3.1-4.9-6-9.9-8.6-15l-21.7 5-.1-.3c-3.6-7.7-6.6-15.7-9.1-23.9l-.1-.3 19.3-11.1c-1.5-5.5-2.7-11.1-3.6-16.6l-22-1.6v-.3c-1.1-8.2-1.6-16.5-1.6-24.7v-1.3l21.6-4.8c.2-5.6.6-11.2 1.4-16.7l-20.4-7.9.1-.3c1.4-8.6 3.5-17 6-25.2l.1-.3 21.9 1.7c1.8-5.2 3.9-10.3 6.2-15.3l-17-13.5.1-.3c3.9-7.7 8.4-15.3 13.3-22.4l.2-.3 20.2 8c3.2-4.4 6.7-8.7 10.2-12.6l-12.2-17.8.2-.2c6-6.3 12.5-12.3 19.4-17.7l.2-.2 16.8 13.5c4.3-3.2 8.7-6.2 13.3-9L454 95.5l.3-.2C462 91 470 87.2 478.1 84l.3-.1 12 17.8c5-1.8 10.1-3.4 15.3-4.7l-.1-21.4.3-.1c8.6-1.9 17.4-3.2 26.1-3.9h.3l6.2 20.5c2.7-.1 5.4-.2 8-.2s5.2.1 8 .2l6.2-20.5h.3c8.7.7 17.5 2 26.1 3.9l.3.1.1 21.4c5.2 1.3 10.3 2.9 15.3 4.7l12-17.8.3.1c8.1 3.2 16.1 7 23.8 11.3l.3.2-.1.3-6.3 20.2c4.6 2.8 9 5.8 13.3 9l16.8-13.5.2.2c6.9 5.4 13.4 11.4 19.4 17.7l.2.2-.2.3-12 17.5c3.5 4 7 8.2 10.2 12.6l20.2-8 .2.3c4.9 7.2 9.4 14.7 13.3 22.4l.1.3-17 13.5c2.3 5 4.4 10.2 6.2 15.3l21.9-1.7.1.3c2.6 8.2 4.6 16.6 6 25.2l.1.3-20.4 7.9c.7 5.5 1.2 11.1 1.4 16.7l21.6 4.8V258.6c0 8.2-.5 16.5-1.6 24.7v.3l-22 1.6c-.9 5.5-2.1 11.1-3.6 16.6l19.3 11.1-.1.3c-2.5 8.1-5.5 16.1-9.1 23.9l-.1.3-21.7-5c-2.6 5.1-5.4 10.1-8.6 15l15.3 16.4-.2.3c-4.7 7-10 13.7-15.7 20l-.2.2-19.4-11.3c-4.1 4.3-8.4 8.3-12.7 12l9.9 20.3-.2.2c-6.6 5.2-13.6 10.1-20.8 14.4l-.3.2-15.3-16.6c-5.2 2.9-10.6 5.5-15.9 7.8l3.4 22.4-.3.1c-7.8 3-15.9 5.5-24 7.5l-.3.1-9.8-20.4c-5.7 1.2-11.6 2.1-17.6 2.6l-3.3 22.4h-.3c-4.4.2-8.6.4-12.6.4" clip-path="url(#SVGID_2_)" fill="none"/>
  <defs>
    <path id="SVGID_3_" d="M41.5 71.6h1207.2v606.9H41.5z"/>
  </defs>
  <clipPath id="SVGID_4_">
    <use xlink:href="#SVGID_3_" overflow="visible"/>
  </clipPath>
  <path d="M602.4 195.4l70.7-44.2c-1-1.2-2.1-2.5-3.1-3.7l9.6-14-82.2 51.9v-85.1c-3.4-1.1-6.8-2.1-10.4-3l.1-21.4c-3.6-.8-7.2-1.5-10.9-2v147.7h153.9c-1.3-6.5-2.9-12.8-4.9-19l-21.9 1.7c-1.9-5.4-4-10.7-6.4-15.8l17-13.5c-2.6-5.1-5.4-10.1-8.4-15L649 195.5l-46.6-.1z" clip-path="url(#SVGID_4_)" fill="#e6e6e6"/>
  <path class="st0" d="M41.5 71.6h1207.2v606.9H41.5z"/>
  <path class="st5" d="M582.1 259.6c0 19.6-15.9 35.5-35.5 35.5s-35.5-15.9-35.5-35.5 15.9-35.5 35.5-35.5 35.5 15.9 35.5 35.5m-5.9-185.7c-5-.8-10-1.4-15.2-1.8l-6.2 20.5c-2.7-.1-5.5-.2-8.2-.2-2.8 0-5.5.1-8.2.2L532.1 72c-5.5.4-10.8 1.1-16.2 2v147.5H363.1c-.4 2-.8 4.1-1.1 6.2l20.4 7.9c-.8 5.7-1.3 11.4-1.4 17.3l-21.6 4.8v1c0 8.3.6 16.6 1.6 24.6l22 1.6c.6 3.6 1.3 7.1 2.1 10.6H516v125.6c4.9.9 9.8 1.6 14.8 2.1l3.3 22.4c4.1.3 8.3.4 12.5.4s8.4-.2 12.5-.4l3.3-22.4c4.7-.4 9.3-1.1 13.8-1.9V295.5h131.9c.8-3.5 1.5-7 2.1-10.6l22-1.6c1.1-8.1 1.6-16.3 1.6-24.6v-1l-21.6-4.8c-.2-5.8-.7-11.6-1.4-17.3l20.4-7.9c-.3-2.1-.7-4.1-1.1-6.2H576.2V73.9z"/>
  <path class="st0" d="M41.5 71.6h1207.2v606.9H41.5z"/>
  <path class="st5" d="M680.6 160.5c-2.4-3.2-4.9-6.3-7.4-9.4l-70.7 44.2h46.7l56.5-35.5c-1.6-2.5-3.2-5-4.8-7.4l-20.3 8.1z"/>
  <path class="st0" d="M41.5 71.6h1207.2v606.9H41.5z"/>
  <path class="st1" d="M679.6 133.5l2.6-3.8c-6-6.3-12.5-12.2-19.3-17.7l-16.8 13.5c-4.4-3.3-9-6.4-13.8-9.3l6.4-20.5c-7.6-4.3-15.5-8.1-23.7-11.3l-12 17.8c-1.8-.7-3.6-1.3-5.5-1.9v85.1l82.1-51.9z"/>
  <defs>
    <path id="SVGID_5_" d="M41.5 71.6h1207.2v606.9H41.5z"/>
  </defs>
  <clipPath id="SVGID_6_">
    <use xlink:href="#SVGID_5_" overflow="visible"/>
  </clipPath>
  <path d="M602.4 322.7l88.5 55.4c3.7-4.5 7.3-9.2 10.6-14.1l-15.3-16.4c.2-.4.5-.8.7-1.1l-37.8-23.7-46.7-.1z" clip-path="url(#SVGID_6_)" fill="#ca4642"/>
  <defs>
    <path id="SVGID_7_" d="M41.5 71.6h1207.2v606.9H41.5z"/>
  </defs>
  <clipPath id="SVGID_8_">
    <use xlink:href="#SVGID_7_" overflow="visible"/>
  </clipPath>
  <path d="M597.4 439c5.7-1.6 11.3-3.5 16.8-5.6l-3.4-22.4c5.6-2.4 11.1-5.1 16.4-8l15.3 16.6c7.2-4.3 14.1-9.1 20.7-14.3l-9.9-20.3c3.8-3.2 7.4-6.6 10.9-10.1l-66.8-42.3V439z" clip-path="url(#SVGID_8_)" fill="#003c64"/>
  <path class="st0" d="M41.5 71.6h1207.2v606.9H41.5z"/>
  <path class="st8" d="M705.4 302.1c.6-2.2 1.2-4.4 1.7-6.6H575.2v125.8c1.4-.3 2.9-.5 4.3-.8l9.7 20.4c2.4-.6 4.8-1.2 7.1-1.9V332.6l66.8 42.3c.7-.8 1.5-1.5 2.2-2.3l19.4 11.3c1.7-1.9 3.4-3.9 5-5.8l-88.5-55.4h46.7l37.8 23.7c2.9-4.6 5.7-9.4 8.1-14.4l21.7 5c1.6-3.6 3.2-7.2 4.6-10.9.4-1.1.9-2.3 1.3-3.4 1.1-3.1 2.2-6.3 3.2-9.5l-19.2-11.1z"/>
  <defs>
    <path id="SVGID_9_" d="M41.5 71.6h1207.2v606.9H41.5z"/>
  </defs>
  <clipPath id="SVGID_10_">
    <use xlink:href="#SVGID_9_" overflow="visible"/>
  </clipPath>
  <path d="M490.8 195.4L420 151.1c-2.6 3.1-5.1 6.2-7.4 9.4l-20.2-8c-1.7 2.4-3.3 4.9-4.8 7.4l56.5 35.5h46.7z" clip-path="url(#SVGID_10_)" fill="#ca4642"/>
  <path class="st0" d="M41.5 71.6h1207.2v606.9H41.5z"/>
  <path class="st1" d="M501.1 103c-1.8.6-3.7 1.2-5.5 1.9l-12-17.8c-8.2 3.2-16.1 7-23.7 11.3l6.4 20.5c-4.8 2.9-9.4 6-13.8 9.3l-16.8-13.5c-6.8 5.4-13.3 11.3-19.3 17.7l2.6 3.8 82.2 51.9V103h-.1z"/>
  <defs>
    <path id="SVGID_11_" d="M41.5 71.6h1207.2v606.9H41.5z"/>
  </defs>
  <clipPath id="SVGID_12_">
    <use xlink:href="#SVGID_11_" overflow="visible"/>
  </clipPath>
  <path d="M444.1 322.7l-37.8 23.7c.2.4.5.8.7 1.1l-15.3 16.4c3.3 4.9 6.9 9.6 10.6 14.1l88.5-55.4-46.7.1z" clip-path="url(#SVGID_12_)" fill="#ca4642"/>
  <defs>
    <path id="SVGID_13_" d="M41.5 71.6h1207.2v606.9H41.5z"/>
  </defs>
  <clipPath id="SVGID_14_">
    <use xlink:href="#SVGID_13_" overflow="visible"/>
  </clipPath>
  <path d="M428.9 374.8c3.5 3.5 7.1 6.9 10.9 10.1l-9.9 20.3c6.6 5.2 13.5 10 20.7 14.3L466 403c5.3 3 10.8 5.6 16.4 8l-3.4 22.4c5.5 2.1 11.1 4 16.8 5.6V332.6l-66.9 42.2z" clip-path="url(#SVGID_14_)" fill="#003c64"/>
  <defs>
    <path id="SVGID_15_" d="M41.5 71.6h1207.2v606.9H41.5z"/>
  </defs>
  <clipPath id="SVGID_16_">
    <use xlink:href="#SVGID_15_" overflow="visible"/>
  </clipPath>
  <path d="M385.1 295.5c.5 2.2 1.1 4.4 1.7 6.6l-19.3 11.1c1 3.2 2 6.3 3.2 9.5.4 1.2.8 2.3 1.3 3.4 1.4 3.7 3 7.3 4.6 10.9l21.7-5c2.5 4.9 5.2 9.7 8.1 14.4l37.8-23.7h46.7L402.3 378c1.6 2 3.3 3.9 5 5.8l19.4-11.3c.7.8 1.5 1.5 2.2 2.3l66.8-42.3V439c2.4.7 4.7 1.3 7.1 1.9l9.8-20.4 3.3.6V295.5H385.1z" clip-path="url(#SVGID_16_)" fill="#e6e6e6"/>
  <path class="st0" d="M41.5 71.6h1207.2v606.9H41.5z"/>
  <path class="st8" d="M491.3 195.4l-70.7-44.2c1-1.2 2.1-2.5 3.1-3.7l-9.6-14 82.2 51.9v-85.1c3.4-1.1 6.8-2.1 10.4-3l-.1-21.4c3.6-.8 7.2-1.5 10.9-2v147.7H363.6c1.3-6.5 2.9-12.8 4.9-19l21.9 1.7c1.9-5.4 4-10.7 6.4-15.8l-17-13.5c2.6-5.1 5.4-10.1 8.4-15l56.5 35.5 46.6-.1z"/>
  <defs>
    <path id="SVGID_17_" d="M41.5 71.6h1207.2v606.9H41.5z"/>
  </defs>
  <clipPath id="SVGID_18_">
    <use xlink:href="#SVGID_17_" overflow="visible"/>
  </clipPath>
  <path d="M367.7 613.3c-30 0-54.4-24.3-54.4-54.4 0-30 24.3-54.4 54.4-54.4 30 0 54.4 24.3 54.4 54.4 0 30.1-24.4 54.4-54.4 54.4m0-138.6c-46.2 0-83.7 37.5-83.7 83.7s37.5 83.7 83.7 83.7 83.7-37.5 83.7-83.7-37.5-83.7-83.7-83.7" clip-path="url(#SVGID_18_)" fill="#003c64"/>
  <defs>
    <path id="SVGID_19_" d="M41.5 71.6h1207.2v606.9H41.5z"/>
  </defs>
  <clipPath id="SVGID_20_">
    <use xlink:href="#SVGID_19_" overflow="visible"/>
  </clipPath>
  <path d="M367.7 592.7c-18.6 0-33.7-15.1-33.7-33.7s15.1-33.7 33.7-33.7 33.7 15.1 33.7 33.7-15.1 33.7-33.7 33.7m0-80.1c-25.6 0-46.4 20.8-46.4 46.4 0 25.6 20.8 46.4 46.4 46.4s46.4-20.8 46.4-46.4c0-25.7-20.8-46.4-46.4-46.4" clip-path="url(#SVGID_20_)" fill="#003c64"/>
  <path class="st0" d="M41.5 71.6h1207.2v606.9H41.5z"/>
  <path class="st1" d="M473.5 554.7c.3-3.8 0-7.4-.5-11.1l13.1-5.1c-.9-5.5-2.2-10.9-3.9-16.1l-14 1.1c-1.2-3.5-2.6-6.9-4.1-10.2l10.9-8.7c-2.5-5-5.4-9.8-8.5-14.4l-13 5.1c-2.1-2.9-4.4-5.7-6.8-8.4l7.8-11.4c-3.9-4.1-8-7.8-12.4-11.3l-10.8 8.7c-2.8-2.1-5.8-4.1-8.8-6l4.1-13.1c-4.9-2.8-9.9-5.2-15.2-7.2l-7.7 11.4c-3.3-1.2-6.7-2.2-10.2-3.1v-13.7c-5.4-1.2-11-2-16.7-2.5l-4 13.1c-1.7-.1-3.5-.1-5.3-.1s-3.5 0-5.3.1l-4-13.1c-5.7.4-11.3 1.3-16.7 2.5v13.7c-3.5.9-6.8 1.9-10.2 3.1l-7.7-11.4c-5.3 2.1-10.3 4.5-15.2 7.2l4.1 13.1c-3.1 1.8-6 3.8-8.8 6l-10.8-8.7c-4.4 3.5-8.5 7.3-12.4 11.3l7.8 11.4c-2.4 2.7-4.7 5.5-6.8 8.4l-13-5.1c-3.2 4.6-6 9.4-8.5 14.4l10.9 8.7c-1.5 3.3-2.9 6.7-4.1 10.2l-14-1.1c-1.6 5.2-2.9 10.6-3.9 16.1l13.1 5.1c-.5 3.6-.8 7.3-.9 11.1l-13.8 3.1v.6c0 5.4.4 10.6 1 15.8l14.1 1c.6 3.7 1.4 7.4 2.4 11l-12.4 7.1c1.6 5.3 3.5 10.3 5.8 15.3l13.9-3.2c1.7 3.4 3.6 6.7 5.7 10l-9.8 10.5c3.1 4.5 6.4 8.8 10 12.8l12.4-7.2c2.7 2.8 5.5 5.4 8.4 7.9l-6.3 13c4.2 3.4 8.6 6.4 13.3 9.2l9.8-10.6c3.4 1.9 6.9 3.6 10.5 5.1l-2.2 14.3c5 1.9 10.1 3.5 15.4 4.8l6.3-13.1c3.8.8 7.7 1.4 11.6 1.7l2.1 14.4c2.7.2 5.3.3 8 .3s5.4-.1 8-.3l2.1-14.4c3.9-.4 7.8-1 11.6-1.7l6.3 13.1c5.3-1.3 10.4-2.9 15.4-4.8l-2.2-14.3c3.6-1.5 7.1-3.2 10.5-5.1l9.8 10.6c4.6-2.8 9.1-5.8 13.3-9.2l-6.3-13c3-2.5 5.8-5.1 8.4-7.9l12.4 7.2c3.6-4 7-8.3 10-12.8l-9.8-10.5c2.1-3.2 4-6.5 5.7-10l13.9 3.2c2.3-4.9 4.2-10 5.8-15.3l-12.4-7.1c1-3.6 1.8-7.3 2.4-11l14.1-1c.7-5.2 1-10.4 1-15.8v-.6l-13.8-3.1zm-105.8 93.9c-49.8 0-90.1-40.4-90.1-90.1 0-49.8 40.3-90.1 90.1-90.1s90.1 40.4 90.1 90.1c0 49.7-40.3 90.1-90.1 90.1z"/>
  <path class="st2" d="M367.7 480.7l2.6 7.7h8.1l-6.6 4.8 2.5 7.7-6.6-4.7-6.5 4.7 2.4-7.7-6.5-4.8h8.1zM401.7 489.5l2.5 7.6 8.1.1-6.5 4.8 2.4 7.7-6.5-4.8-6.6 4.7 2.5-7.7-6.6-4.7 8.1-.1zM426.2 514.2l2.6 7.7h8.1l-6.6 4.8 2.5 7.7-6.6-4.7-6.5 4.7 2.4-7.7-6.5-4.8h8.1zM435.4 548.1l2.5 7.6 8.1.1-6.5 4.8 2.4 7.7-6.5-4.8-6.6 4.8 2.5-7.7-6.5-4.8 8-.1zM426.2 582l2.6 7.7h8.1l-6.6 4.8 2.5 7.7-6.6-4.7-6.5 4.7 2.4-7.7-6.5-4.8h8.1zM401.6 606.6l2.5 7.7 8.1.1-6.5 4.7 2.5 7.7-6.6-4.7-6.6 4.7 2.5-7.7-6.5-4.8h8.1zM367.7 616l2.6 7.7h8.1l-6.6 4.8 2.5 7.7-6.6-4.8-6.5 4.8 2.4-7.7-6.5-4.8 8.1-.1zM333.7 606.6l2.6 7.7 8.1.1-6.6 4.7 2.5 7.7-6.6-4.7-6.5 4.7 2.4-7.7-6.5-4.8h8.1zM309.2 582l2.5 7.7h8.1l-6.5 4.8 2.4 7.7-6.5-4.7-6.6 4.7 2.5-7.7-6.5-4.8h8.1zM300 548.1l2.5 7.6 8.1.1-6.5 4.8 2.4 7.7-6.5-4.8-6.6 4.8 2.5-7.7-6.5-4.8 8-.1zM309.2 514.6l2.5 7.7h8.1l-6.5 4.8 2.4 7.7-6.5-4.7-6.6 4.7 2.5-7.7-6.5-4.8h8.1zM333.7 489.5l2.6 7.6 8.1.1-6.6 4.8 2.5 7.7-6.6-4.8-6.5 4.7 2.4-7.7-6.5-4.7 8.1-.1z"/>
  <g>
    <defs>
      <path id="SVGID_21_" d="M41.5 71.6h1207.2v606.9H41.5z"/>
    </defs>
    <clipPath id="SVGID_22_">
      <use xlink:href="#SVGID_21_" overflow="visible"/>
    </clipPath>
    <path d="M141.4 440.4c-10.3 0-18.7 8.4-18.7 18.7 0 10.3 8.4 18.7 18.7 18.7s18.7-8.4 18.7-18.7c0-10.3-8.4-18.7-18.7-18.7m0 37.8c-10.5 0-19.1-8.6-19.1-19.1s8.6-19.1 19.1-19.1 19.1 8.6 19.1 19.1-8.5 19.1-19.1 19.1m-6.5 79.8c2.2.1 4.4.2 6.5.2s4.3-.1 6.5-.2l1.8-11.9h.2c3.3-.3 6.5-.8 9.6-1.4h.2l.1.1 5.1 10.7c4.2-1 8.4-2.3 12.4-3.9l-1.8-11.9.1-.1c2.9-1.2 5.8-2.7 8.7-4.3l.1-.1 8.1 8.8c3.7-2.2 7.3-4.7 10.7-7.4l-5.2-10.8.1-.1c2.4-2 4.8-4.2 7-6.6l.1-.1 10.3 6c2.9-3.3 5.6-6.7 8.1-10.3l-8.2-8.7.1-.1c1.7-2.7 3.3-5.5 4.7-8.2l.1-.1 11.6 2.7c1.8-4 3.4-8.1 4.7-12.3l-10.3-5.9v-.2c.8-3 1.5-6.1 2-9.1v-.2l11.7-.8c.6-4.3.8-8.6.8-12.9v-.4l-11.5-2.6v-.2c-.1-3.1-.4-6.2-.8-9.2v-.2l10.9-4.2c-.7-4.4-1.8-8.8-3.1-13l-11.6.9-.1-.2c-1-2.8-2.1-5.7-3.4-8.4l-.1-.1 9.1-7.2c-2-4-4.3-7.9-6.9-11.6l-10.8 4.3-.1-.1c-1.8-2.4-3.7-4.8-5.6-7l-.1-.1 6.5-9.5c-3.1-3.3-6.5-6.3-10-9.2l-9 7.2-.1-.1c-2.4-1.8-4.8-3.4-7.3-5l-.1-.1 3.4-10.9c-4-2.2-8.1-4.2-12.3-5.9l-6.4 9.5-.2-.1c-2.7-1-5.6-1.8-8.4-2.6h-.2v-11.4c-4.5-1-9-1.7-13.5-2l-3.3 10.9h-.2c-1.5-.1-3-.1-4.4-.1s-2.9 0-4.4.1h-.2l-3.3-10.9c-4.5.4-9.1 1-13.5 2v11.4h-.2c-2.8.7-5.7 1.6-8.4 2.6l-.2.1-6-9.6c-4.2 1.7-8.3 3.6-12.3 5.9l3.4 10.9-.1.1c-2.5 1.5-5 3.2-7.3 5l-.1.1-9-7.2c-3.5 2.8-6.9 5.9-10 9.2l6.5 9.5-.1.1c-2 2.2-3.8 4.5-5.6 7l-.1.1-10.8-4.3c-2.5 3.7-4.9 7.6-6.9 11.6l9.1 7.2-.1.1c-1.3 2.7-2.4 5.6-3.4 8.4l-.1.2-11.6-.9c-1.3 4.2-2.4 8.6-3.1 13l10.9 4.2v.2c-.4 3-.7 6.1-.8 9.2v.2L42 458.4v.4c0 4.3.3 8.6.8 12.9l11.7.8v.2c.5 3 1.2 6.1 2 9.1v.2l-10.3 5.9c1.3 4.2 2.9 8.4 4.7 12.3l11.6-2.7.1.1c1.4 2.8 3 5.6 4.7 8.2l.1.1-8.2 8.7c2.5 3.6 5.2 7.1 8.1 10.3l10.3-6 .1.1c2.2 2.3 4.6 4.6 7 6.6l.1.1-5.2 10.8c3.4 2.7 7 5.2 10.7 7.4l8.1-8.8.1.1c2.9 1.6 5.8 3 8.7 4.3l.2.1-1.8 11.9c4 1.6 8.2 2.9 12.4 3.9l5.2-10.9h.2c3.1.6 6.4 1.1 9.6 1.4h.2l1.7 12.1zm6.5.6c-2.1 0-4.4-.1-6.7-.2h-.2l-1.8-11.9c-3.2-.3-6.3-.8-9.4-1.4l-5.2 10.9h-.2c-4.3-1-8.6-2.4-12.8-4l-.2-.1 1.8-11.9c-2.8-1.2-5.7-2.6-8.5-4.1l-8.1 8.8-.1-.1c-3.8-2.3-7.6-4.9-11.1-7.7l-.1-.1 5.3-10.8c-2.3-2-4.6-4.1-6.8-6.4l-10.3 6-.1-.1c-3-3.4-5.8-6.9-8.3-10.6l-.1-.1 8.2-8.7c-1.7-2.6-3.2-5.3-4.6-8l-11.6 2.7-.1-.2c-1.9-4.1-3.5-8.4-4.8-12.7v-.2l10.3-5.9c-.8-2.9-1.5-5.9-1.9-8.9l-11.6-.9v-.2c-.6-4.4-.9-8.8-.9-13.1v-.7l11.5-2.6c.1-3 .3-6 .7-8.9l-10.9-4.2v-.2c.8-4.6 1.8-9.1 3.2-13.4v-.2l11.6.9c1-2.8 2.1-5.5 3.3-8.2l-9.1-7.2.1-.2c2.1-4.1 4.5-8.1 7.1-12l.1-.1 10.8 4.3c1.7-2.4 3.6-4.6 5.4-6.7l-6.5-9.5.1-.1c3.2-3.4 6.7-6.5 10.3-9.4l.1-.1 9 7.2c2.3-1.7 4.7-3.3 7.1-4.8L92 371.7l.1-.1c4.1-2.3 8.3-4.3 12.7-6l.2-.1 6.4 9.5c2.7-1 5.4-1.8 8.1-2.5v-11.4h.2c4.6-1 9.3-1.7 13.9-2.1h.2l3.3 10.9c1.5-.1 2.9-.1 4.2-.1 1.4 0 2.8 0 4.2.1L149 359h.2c4.6.4 9.3 1 13.9 2.1h.2v11.4c2.7.7 5.5 1.5 8.1 2.5l6.4-9.5.2.1c4.3 1.7 8.6 3.7 12.7 6l.1.1-.1.2-3.4 10.8c2.4 1.5 4.8 3.1 7.1 4.8l9-7.2.1.1c3.7 2.9 7.1 6.1 10.3 9.4l.1.1-.1.1-6.4 9.3c1.9 2.1 3.7 4.4 5.4 6.7l10.8-4.3.1.1c2.6 3.8 5 7.8 7.1 12l.1.2-9.1 7.2c1.2 2.7 2.3 5.4 3.3 8.2l11.6-.9v.2c1.4 4.4 2.4 8.9 3.2 13.4v.2l-10.9 4.2c.4 2.9.6 5.9.7 8.9l11.5 2.6v.7c0 4.4-.3 8.8-.9 13.1v.2l-11.7.8c-.5 3-1.1 5.9-1.9 8.9l10.3 5.9v.2c-1.3 4.3-2.9 8.6-4.8 12.7l-.1.2-11.6-2.7c-1.4 2.7-2.9 5.4-4.6 8l8.2 8.7-.1.1c-2.5 3.7-5.3 7.3-8.3 10.6l-.1.1-10.3-6c-2.2 2.3-4.5 4.4-6.8 6.4l5.3 10.8-.1.1c-3.5 2.8-7.2 5.4-11.1 7.7l-.1.1-8.1-8.8c-2.8 1.6-5.6 2.9-8.5 4.1l1.8 11.9-.2.1c-4.1 1.6-8.4 2.9-12.8 4h-.2l-5.2-10.9c-3 .6-6.2 1.1-9.4 1.4l-1.8 11.9h-.2c-2.1.2-4.3.3-6.5.3" clip-path="url(#SVGID_22_)" fill="none"/>
  </g>
  <g>
    <defs>
      <path id="SVGID_23_" d="M41.5 71.6h1207.2v606.9H41.5z"/>
    </defs>
    <clipPath id="SVGID_24_">
      <use xlink:href="#SVGID_23_" overflow="visible"/>
    </clipPath>
    <path d="M171.2 424.9l37.7-23.6c-.6-.7-1.1-1.3-1.7-2l5.1-7.4-43.8 27.7v-45.3c-1.8-.6-3.6-1.1-5.5-1.6v-11.4c-1.9-.4-3.9-.8-5.8-1.1v78.7h82c-.7-3.4-1.6-6.8-2.6-10.1l-11.6.9c-1-2.9-2.1-5.7-3.4-8.4l9.1-7.2c-1.4-2.7-2.9-5.4-4.5-8L196 424.9h-24.8z" clip-path="url(#SVGID_24_)" fill="#e6e6e6"/>
  </g>
  <path class="st0" d="M41.5 71.6h1207.2v606.9H41.5z"/>
  <path class="st5" d="M160.3 459.1c0 10.4-8.5 18.9-18.9 18.9s-18.9-8.5-18.9-18.9 8.5-18.9 18.9-18.9c10.5 0 18.9 8.4 18.9 18.9m-3.1-98.9c-2.7-.4-5.4-.8-8.1-1l-3.3 10.9c-1.5-.1-2.9-.1-4.4-.1s-2.9 0-4.4.1l-3.3-10.9c-2.9.2-5.8.6-8.6 1.1v78.6H43.7l-.6 3.3 10.9 4.2c-.4 3-.7 6.1-.8 9.2l-11.5 2.6v.5c0 4.4.3 8.8.9 13.1l11.7.8c.3 1.9.7 3.8 1.1 5.6h69.7v66.9c2.6.5 5.2.9 7.9 1.1l1.8 11.9c2.2.1 4.4.2 6.7.2 2.2 0 4.5-.1 6.7-.2l1.8-11.9c2.5-.2 4.9-.6 7.4-1v-67h70.2c.4-1.9.8-3.7 1.1-5.6l11.7-.8c.6-4.3.9-8.7.9-13.1v-.5l-11.5-2.6c-.1-3.1-.4-6.2-.8-9.2l10.9-4.2-.6-3.3h-82l-.1-78.7z"/>
  <g>
    <defs>
      <path id="SVGID_25_" d="M41.5 71.6h1207.2v606.9H41.5z"/>
    </defs>
    <clipPath id="SVGID_26_">
      <use xlink:href="#SVGID_25_" overflow="visible"/>
    </clipPath>
    <path d="M212.8 406.3c-1.3-1.7-2.6-3.4-4-5l-37.7 23.6H196l30.1-18.9c-.8-1.3-1.7-2.7-2.6-3.9l-10.7 4.2z" clip-path="url(#SVGID_26_)" fill="#ca4642"/>
  </g>
  <path class="st0" d="M41.5 71.6h1207.2v606.9H41.5z"/>
  <path class="st1" d="M212.3 391.9l1.4-2c-3.2-3.4-6.6-6.5-10.3-9.4l-9 7.2c-2.4-1.8-4.8-3.4-7.3-5l3.4-10.9c-4-2.3-8.3-4.3-12.6-6l-6.4 9.5c-1-.3-1.9-.7-2.9-1v45.3l43.7-27.7z"/>
  <g>
    <defs>
      <path id="SVGID_27_" d="M41.5 71.6h1207.2v606.9H41.5z"/>
    </defs>
    <clipPath id="SVGID_28_">
      <use xlink:href="#SVGID_27_" overflow="visible"/>
    </clipPath>
    <path d="M171.2 492.7l47.1 29.5c2-2.4 3.9-4.9 5.7-7.5l-8.2-8.7c.1-.2.3-.4.4-.6L196 492.7h-24.8z" clip-path="url(#SVGID_28_)" fill="#ca4642"/>
  </g>
  <g>
    <defs>
      <path id="SVGID_29_" d="M41.5 71.6h1207.2v606.9H41.5z"/>
    </defs>
    <clipPath id="SVGID_30_">
      <use xlink:href="#SVGID_29_" overflow="visible"/>
    </clipPath>
    <path d="M168.5 554.6c3-.9 6-1.8 9-3l-1.8-11.9c3-1.3 5.9-2.7 8.7-4.3l8.1 8.8c3.9-2.3 7.5-4.9 11-7.6l-5.2-10.8c2-1.7 4-3.5 5.8-5.4L168.5 498v56.6z" clip-path="url(#SVGID_30_)" fill="#003c64"/>
  </g>
  <g>
    <defs>
      <path id="SVGID_31_" d="M41.5 71.6h1207.2v606.9H41.5z"/>
    </defs>
    <clipPath id="SVGID_32_">
      <use xlink:href="#SVGID_31_" overflow="visible"/>
    </clipPath>
    <path d="M226.6 481.8c.3-1.2.6-2.3.9-3.5h-70.2v67c.8-.1 1.5-.3 2.3-.4l5.2 10.9c1.3-.3 2.5-.6 3.8-1V498l35.6 22.5 1.2-1.2 10.3 6c.9-1 1.8-2.1 2.7-3.1l-47.1-29.5H196l20.1 12.6c1.6-2.5 3-5 4.3-7.7l11.6 2.7c.9-1.9 1.7-3.8 2.5-5.8.2-.6.5-1.2.7-1.8.6-1.7 1.2-3.3 1.7-5l-10.3-5.9z" clip-path="url(#SVGID_32_)" fill="#e6e6e6"/>
  </g>
  <g>
    <defs>
      <path id="SVGID_33_" d="M41.5 71.6h1207.2v606.9H41.5z"/>
    </defs>
    <clipPath id="SVGID_34_">
      <use xlink:href="#SVGID_33_" overflow="visible"/>
    </clipPath>
    <path d="M111.7 424.9L74 401.3c-1.4 1.6-2.7 3.3-4 5L59.2 402c-.9 1.3-1.7 2.6-2.6 3.9l30.1 18.9h25v.1z" clip-path="url(#SVGID_34_)" fill="#ca4642"/>
  </g>
  <g>
    <defs>
      <path id="SVGID_35_" d="M41.5 71.6h1207.2v606.9H41.5z"/>
    </defs>
    <clipPath id="SVGID_36_">
      <use xlink:href="#SVGID_35_" overflow="visible"/>
    </clipPath>
    <path d="M117.2 375.7c-1 .3-2 .6-2.9 1l-6.4-9.5c-4.4 1.7-8.6 3.7-12.6 6l3.4 10.9c-2.5 1.5-5 3.2-7.3 5l-9-7.2c-3.6 2.9-7.1 6-10.3 9.4l1.4 2 43.8 27.7-.1-45.3z" clip-path="url(#SVGID_36_)" fill="#003c64"/>
  </g>
  <g>
    <defs>
      <path id="SVGID_37_" d="M41.5 71.6h1207.2v606.9H41.5z"/>
    </defs>
    <clipPath id="SVGID_38_">
      <use xlink:href="#SVGID_37_" overflow="visible"/>
    </clipPath>
    <path d="M86.9 492.7l-20.1 12.6c.1.2.2.4.4.6l-8.2 8.7c1.8 2.6 3.7 5.1 5.7 7.5l47.1-29.5-24.9.1z" clip-path="url(#SVGID_38_)" fill="#ca4642"/>
  </g>
  <g>
    <defs>
      <path id="SVGID_39_" d="M41.5 71.6h1207.2v606.9H41.5z"/>
    </defs>
    <clipPath id="SVGID_40_">
      <use xlink:href="#SVGID_39_" overflow="visible"/>
    </clipPath>
    <path d="M78.8 520.5c1.9 1.9 3.8 3.7 5.8 5.4l-5.3 10.8c3.5 2.8 7.2 5.3 11 7.6l8.1-8.8c2.8 1.6 5.7 3 8.7 4.3l-1.8 11.9c2.9 1.1 5.9 2.1 9 3V498l-35.5 22.5z" clip-path="url(#SVGID_40_)" fill="#003c64"/>
  </g>
  <g>
    <defs>
      <path id="SVGID_41_" d="M41.5 71.6h1207.2v606.9H41.5z"/>
    </defs>
    <clipPath id="SVGID_42_">
      <use xlink:href="#SVGID_41_" overflow="visible"/>
    </clipPath>
    <path d="M55.4 478.2c.3 1.2.6 2.4.9 3.5l-10.3 6c.5 1.7 1.1 3.4 1.7 5 .2.6.4 1.2.7 1.8.8 2 1.6 3.9 2.5 5.8l11.6-2.7c1.3 2.6 2.8 5.2 4.3 7.7l20.1-12.6h24.8l-47.1 29.5c.9 1.1 1.8 2.1 2.7 3.1l10.3-6 1.2 1.2 35.6-22.5v56.7c1.3.4 2.5.7 3.8 1l5.2-10.9 1.8.3v-66.9H55.4z" clip-path="url(#SVGID_42_)" fill="#e6e6e6"/>
  </g>
  <path class="st0" d="M41.5 71.6h1207.2v606.9H41.5z"/>
  <path class="st8" d="M112 424.9l-37.7-23.6c.6-.7 1.1-1.3 1.7-2l-5.1-7.4 43.8 27.7v-45.3c1.8-.6 3.6-1.1 5.5-1.6v-11.4c1.9-.4 3.9-.8 5.8-1.1v78.7H44c.7-3.4 1.6-6.8 2.6-10.1l11.6.9c1-2.9 2.1-5.7 3.4-8.4l-9.1-7.2c1.4-2.7 2.9-5.4 4.5-8L87.1 425H112v-.1z"/>
</svg>
